<?xml version="1.0" standalone="no"?>
<!DOCTYPE svg PUBLIC "-//W3C//DTD SVG 20010904//EN"
 "http://www.w3.org/TR/2001/REC-SVG-20010904/DTD/svg10.dtd">
<svg version="1.0" xmlns="http://www.w3.org/2000/svg"
 width="700.000000pt" height="700.000000pt" viewBox="0 0 700.000000 700.000000"
 preserveAspectRatio="xMidYMid meet">
<metadata>
Created by potrace 1.11, written by Peter Selinger 2001-2013
</metadata>
<g transform="translate(0.000000,700.000000) scale(0.100000,-0.100000)"
fill="#000000" stroke="none">
<path d="M94 6981 c-23 -10 -52 -34 -65 -52 l-24 -34 -2 -3382 c-2 -2573 0
-3389 9 -3410 16 -39 64 -81 107 -93 25 -8 1088 -10 3401 -8 3357 3 3365 3
3400 23 21 12 44 39 57 65 l23 44 0 3361 c-1 1848 -3 3372 -7 3387 -6 33 -49
82 -88 102 -27 14 -389 16 -3400 16 -3264 0 -3371 -1 -3411 -19z m3264 -1433
c18 -18 17 -1031 -1 -1047 -9 -7 -111 -12 -307 -13 l-294 -3 -1 -1508 0 -1509
-21 -16 c-18 -15 -72 -17 -580 -16 -308 0 -572 4 -586 7 -15 4 -28 16 -32 29
-3 13 -6 928 -6 2033 0 1804 2 2013 16 2033 l15 22 893 0 c680 0 895 -3 904
-12z m2135 -3 c18 -13 19 -79 18 -1937 0 -1058 0 -1971 0 -2029 -1 -72 -5
-111 -14 -124 -13 -17 -42 -18 -596 -18 -518 0 -584 1 -598 15 -14 15 -16 161
-15 1527 l0 1511 -299 0 c-227 0 -300 3 -306 13 -11 16 -12 1017 -1 1040 8 16
61 17 901 17 748 -1 895 -3 910 -15z"/>
</g>
</svg>
