<svg width="127" height="165" fill="none" xmlns="http://www.w3.org/2000/svg"><path d="M126.21 95.09H.26" stroke="#2C2E3E" stroke-width=".5"/><path d="M17.991 90.534a5.517 5.517 0 01-1.263-3.513V62.827c0-3.05 2.497-5.548 5.548-5.548h22.071c3.051 0 5.548 2.497 5.548 5.548v24.194c0 1.144-.484 2.473-1.324 3.706" stroke="#2C2E3E" stroke-width=".862"/><path d="M15.959 92.801s.617-2.746 5.314-2.949h23.68s4.69.47 5.745 2.697" stroke="#2C2E3E" stroke-width=".862"/><path d="M10.722 92.666V80.938c0-1.351 1.082-2.457 2.403-2.457 1.323 0 2.404 1.106 2.404 2.457v11.728M50.933 92.431V80.703c0-1.352 1.081-2.457 2.403-2.457s2.404 1.105 2.404 2.457v11.728" stroke="#2C2E3E" stroke-width=".812"/><path d="M82.88 90.534a5.517 5.517 0 01-1.263-3.513V62.827c0-3.05 2.497-5.548 5.548-5.548h22.071c3.051 0 5.548 2.497 5.548 5.548v24.194c0 1.144-.283 2.404-1.27 3.556" stroke="#2C2E3E" stroke-width=".862"/><path d="M80.805 92.608s1.021-2.756 5.357-2.756h23.682s4.689.47 5.744 2.696" stroke="#2C2E3E" stroke-width=".862"/><path d="M75.612 92.666V80.938c0-1.351 1.082-2.457 2.403-2.457 1.323 0 2.404 1.106 2.404 2.457v11.728M115.823 92.431V80.703c0-1.352 1.081-2.457 2.403-2.457s2.404 1.105 2.404 2.457v11.728" stroke="#2C2E3E" stroke-width=".812"/><path d="M31.59 103.685v10.082M34.99 103.568v10.316M64.409 133.208v9.651M67.81 133.05v9.969" stroke="#2C2E3E" stroke-width=".5"/><path clip-rule="evenodd" d="M.406 151.281V92.782H126.43v58.499h-1.758l-3.517-47.831H4.51l-1.876 47.831H.406z" stroke="#2C2E3E" stroke-width=".812"/><path d="M28.396 124.033l-14.423 1.708v.854M14.732 128.493H32.46M34.242 128.493h12.943" stroke="#2C2E3E" stroke-width=".812"/><path d="M14.68 129.58a2.585 2.585 0 11-3.293 2.487c0-1.07.651-1.989 1.58-2.382" stroke="#2C2E3E" stroke-width=".5"/><path clip-rule="evenodd" d="M13.967 132.004h-.04a.774.774 0 01-.776-.775v-3.828c0-.428.346-.775.775-.775h.041c.428 0 .775.347.775.775v3.828a.775.775 0 01-.775.775z" stroke="#2C2E3E" stroke-width=".5"/><path d="M38.075 123.877l9.183 1.287" stroke="#2C2E3E" stroke-width=".812"/><path clip-rule="evenodd" d="M37.82 125.507h-9.018a.425.425 0 01-.425-.426v-2.495c0-.235.19-.426.425-.426h9.018c.235 0 .426.191.426.426v2.495a.426.426 0 01-.426.426z" stroke="#2C2E3E" stroke-width=".812"/><path d="M30.681 121.032v-6.721c0-.26.205-.472.458-.472h4.22c.252 0 .457.212.457.472v6.721M63.57 150.278v-6.721c0-.26.205-.472.458-.472h4.219c.253 0 .458.212.458.472v6.721M29.882 122.235v-.692c0-.261.205-.473.458-.473h5.842c.253 0 .458.212.458.473v.692M62.771 151.48v-.692c0-.261.205-.473.458-.473h5.842c.253 0 .458.212.458.473v.692" stroke="#2C2E3E" stroke-width=".5"/><path fill-rule="evenodd" clip-rule="evenodd" d="M76.449 131.292h-20.79a6.276 6.276 0 01-6.275-6.276V96.503a6.276 6.276 0 016.276-6.276h20.789a6.276 6.276 0 016.276 6.276v28.513a6.276 6.276 0 01-6.276 6.276z" fill="#fff"/><path clip-rule="evenodd" d="M76.449 131.292h-20.79a6.276 6.276 0 01-6.275-6.276V96.503a6.276 6.276 0 016.276-6.276h20.789a6.276 6.276 0 016.276 6.276v28.513a6.276 6.276 0 01-6.276 6.276z" stroke="#2C2E3E" stroke-width=".812"/><path fill-rule="evenodd" clip-rule="evenodd" d="M46.223 131.678a2.153 2.153 0 01-2.153-2.152v-16.035a2.153 2.153 0 014.305 0v16.035a2.153 2.153 0 01-2.152 2.152z" fill="#fff"/><path clip-rule="evenodd" d="M46.223 131.678v0a2.153 2.153 0 01-2.153-2.152v-16.035a2.153 2.153 0 014.305 0v16.035a2.153 2.153 0 01-2.152 2.152z" stroke="#2C2E3E" stroke-width=".812"/><path fill-rule="evenodd" clip-rule="evenodd" d="M85.886 131.678a2.153 2.153 0 01-2.153-2.152v-16.035a2.153 2.153 0 014.305 0v16.035a2.153 2.153 0 01-2.152 2.152z" fill="#fff"/><path clip-rule="evenodd" d="M85.886 131.678v0a2.153 2.153 0 01-2.153-2.152v-16.035a2.153 2.153 0 014.305 0v16.035a2.153 2.153 0 01-2.152 2.152z" stroke="#2C2E3E" stroke-width=".812"/><path d="M46.523 131.687c0 1.678 1.76 1.46 1.76 1.46h36.318s1.285.049 1.285-1.468M61.158 153.52l-14.424 1.708v.855M47.494 157.98h17.73M67.003 157.98h17.528" stroke="#2C2E3E" stroke-width=".812"/><path d="M47.442 159.067a2.586 2.586 0 11-1.714.105" stroke="#2C2E3E" stroke-width=".5"/><path clip-rule="evenodd" d="M46.73 161.49h-.042a.774.774 0 01-.775-.775v-3.828c0-.428.346-.775.775-.775h.041c.428 0 .775.347.775.775v3.828a.775.775 0 01-.775.775z" stroke="#2C2E3E" stroke-width=".5"/><path d="M85.85 159.067a2.586 2.586 0 11-1.714.105" stroke="#2C2E3E" stroke-width=".5"/><path clip-rule="evenodd" d="M85.137 161.49h-.04a.774.774 0 01-.776-.775v-3.828c0-.428.346-.775.775-.775h.041c.428 0 .774.347.774.775v3.828a.774.774 0 01-.774.775z" stroke="#2C2E3E" stroke-width=".5"/><path d="M70.835 153.363l14.045 1.715v1.251" stroke="#2C2E3E" stroke-width=".812"/><path clip-rule="evenodd" d="M70.582 154.994h-9.018a.425.425 0 01-.425-.426v-2.495c0-.235.19-.426.425-.426h9.018c.235 0 .426.191.426.426v2.495a.426.426 0 01-.426.426z" stroke="#2C2E3E" stroke-width=".812"/><path d="M67.154 158.734c.325 0 .59.291.59.649v4.007c0 .359-.265.649-.59.649h-2.152c-.326 0-.589-.29-.589-.649v-4.007c0-.358.263-.649.59-.649" stroke="#2C2E3E" stroke-width=".5"/><path clip-rule="evenodd" d="M66.101 161.247h-.04a.774.774 0 01-.776-.775v-3.828c0-.428.346-.775.775-.775h.041c.428 0 .775.347.775.775v3.828a.775.775 0 01-.775.775z" stroke="#2C2E3E" stroke-width=".5"/><path d="M100.224 103.569v10.524M96.825 103.452v10.758" stroke="#2C2E3E" stroke-width=".5"/><path d="M103.417 124.359l14.424 1.708v.854M117.082 128.819h-17.73M97.572 128.819h-9.467" stroke="#2C2E3E" stroke-width=".812"/><path d="M117.133 129.906a2.586 2.586 0 101.714.105" stroke="#2C2E3E" stroke-width=".5"/><path clip-rule="evenodd" d="M117.846 132.329h.041a.774.774 0 00.775-.775v-3.828a.774.774 0 00-.775-.775h-.041a.774.774 0 00-.774.775v3.828c0 .428.346.775.774.775z" stroke="#2C2E3E" stroke-width=".5"/><path d="M93.74 124.202l-5.544 1.027" stroke="#2C2E3E" stroke-width=".812"/><path clip-rule="evenodd" d="M93.994 125.833h9.018a.425.425 0 00.425-.426v-2.495a.425.425 0 00-.425-.426h-9.018a.426.426 0 00-.426.426v2.495c0 .235.19.426.426.426z" stroke="#2C2E3E" stroke-width=".812"/><path d="M101.133 121.358v-6.721a.466.466 0 00-.458-.472h-4.22a.466.466 0 00-.457.472v6.721M101.932 122.56v-.692a.466.466 0 00-.458-.473h-5.843a.466.466 0 00-.458.473v.692M99.594 130.175c.325 0 .589.291.589.649v4.007c0 .359-.265.649-.59.649h-2.151c-.326 0-.59-.29-.59-.649v-4.007c0-.358.263-.649.59-.649" stroke="#2C2E3E" stroke-width=".5"/><path clip-rule="evenodd" d="M98.54 132.688h-.04a.774.774 0 01-.775-.775v-3.828c0-.428.346-.775.775-.775h.04c.429 0 .776.347.776.775v3.828a.775.775 0 01-.775.775z" stroke="#2C2E3E" stroke-width=".5"/><path d="M34.415 129.43c.325 0 .589.291.589.648v4.008c0 .358-.264.649-.59.649h-2.151c-.326 0-.59-.291-.59-.649v-4.008c0-.357.264-.648.59-.648" stroke="#2C2E3E" stroke-width=".5"/><path clip-rule="evenodd" d="M33.362 131.944h-.041a.775.775 0 01-.775-.775v-3.828c0-.428.347-.775.775-.775h.04c.43 0 .776.347.776.775v3.828a.774.774 0 01-.775.775z" stroke="#2C2E3E" stroke-width=".5"/><path fill-rule="evenodd" clip-rule="evenodd" d="M28.107 69.547a.702.702 0 11-1.403 0 .702.702 0 011.403 0zM39.508 69.547a.702.702 0 11-1.404 0 .702.702 0 011.404 0zM28.107 79.612a.702.702 0 11-1.403 0 .702.702 0 011.403 0zM39.508 79.612a.702.702 0 11-1.404 0 .702.702 0 011.404 0zM93.142 69.547a.702.702 0 11-1.403 0 .702.702 0 011.403 0zM104.543 69.547a.702.702 0 11-1.403 0 .702.702 0 011.403 0zM93.142 79.612a.702.702 0 11-1.403 0 .702.702 0 011.403 0zM104.543 79.612a.702.702 0 11-1.403 0 .702.702 0 011.403 0z" fill="#2C2E3E"/><path d="M32.663 103.458v10.453M32.005 113.865v5.021M98.007 103.692v10.452M97.35 114.099v5.021M65.61 132.891v10.453M64.953 143.299v5.021" stroke="#2C2E3E" stroke-width=".5"/><path d="M45.827 28.609v1.4a5.14 5.14 0 001.943 9.9 5.142 5.142 0 001.944-9.9v-1.4" stroke="#2C2E3E" stroke-width=".812"/><path clip-rule="evenodd" d="M44.834 28.753s0-6.478 2.951-6.478c2.952 0 2.88 6.478 2.88 6.478h-5.83z" stroke="#2C2E3E" stroke-width=".812"/><path d="M47.713 22.131v-11.13M63.064 28.609v1.4a5.142 5.142 0 103.887 0v-1.4" stroke="#2C2E3E" stroke-width=".812"/><path clip-rule="evenodd" d="M62.072 28.753s0-6.478 2.95-6.478 2.88 6.478 2.88 6.478h-5.83z" stroke="#2C2E3E" stroke-width=".812"/><path d="M64.95 22.131V.001M80.3 28.609v1.4a5.14 5.14 0 103.887 0v-1.4" stroke="#2C2E3E" stroke-width=".812"/><path clip-rule="evenodd" d="M79.308 28.753s0-6.478 2.951-6.478 2.88 6.478 2.88 6.478h-5.83z" stroke="#2C2E3E" stroke-width=".812"/><path d="M82.188 22.131v-11.13" stroke="#2C2E3E" stroke-width=".812"/><path d="M47.803 28.67v5.245M64.97 28.67v5.245M82.197 28.67v5.245" stroke="#2C2E3E" stroke-width=".5"/></svg>