<svg width="148" height="126" fill="none" xmlns="http://www.w3.org/2000/svg"><path d="M57.703 41.124s-3.45.826-4.008.826c-.556 0-3.206-.697-3.206-.697l-1.253-2.927-.488-.139-.35 1.742-3.97.21-.21-1.116s-1.046-.209-1.744-.279c-.695-.069-4.528-.139-5.503-.697-.976-.557-2.858-.139-3.764-.139-.907 0-2.44-.557-2.44-.557l-.905-1.116s-3.137-.696-4.461-1.184c-1.325-.488-10.557-2.248-10.557-2.248s-1.118.515-4.383-.258c-3.264-.774-6.357-2.406-6.357-2.406" stroke="#2C2E3E" stroke-width=".5"/><path d="M113.693 94.197c0-2.548-1.733-4.865-2.58-5.46-1.133-.795-3.205-1.209-4.239-1.627-1.035-.418-1.656-2.439-2.62-4.46-.966-2.02-1.311-5.715-1.931-7.248-.62-1.533-3.723-4.112-4.826-5.296-1.103-1.185-5.855-3.929-3.495-10.9.847-2.505 1.77-5.966.254-7.708s-3.048-1.742-3.994-1.105c-.798.538-1.107 1.244-2.9 2.29-1.793 1.045-4.344.348-5.033-.07-.69-.418-1.24-2.788-1.448-4.809-.207-2.02-1.791-4.815-2.895-5.784-4.105-3.6-13.237-2.16-13.237-2.16l-6.997 1.208" stroke="#2C2E3E" stroke-width=".497"/><path clip-rule="evenodd" d="M.4.493v110.951l46.926 13.919 49.31-12.328 50.505 10.737V12.026L96.637.493l-49.311 9.942L.4.493z" stroke="#2C2E3E" stroke-width=".8"/><path clip-rule="evenodd" d="M1.754 110.433V2.164l45.564 9.654 49.301-9.94 49.168 11.227V122.1l-49.175-10.456-49.256 12.315-45.602-13.526z" stroke="#2C2E3E" stroke-width=".425"/><path d="M53.732 62.598c5.268.693 6.053 3.789 10.2 5.047.42.128 1.164.113 1.338-.494.174-.607.513-2.619 1.076-3.758.564-1.14 1.462-2.018 2.883-2.905 1.422-.886 4.373-2.567 4.39-3.029.033-.908-1.763-.998-2.383-1.207-.621-.209-2.27-.446-3.97-1.847-1.205-.993-1.682-1.98-3.023-2.548-1.574-.665-4.183-.637-4.46-.986-.275-.349-1.566-1.533-2.68-1.423l-1.467.027c-1.631.303-2.325 1.288-2.608 2.372 0 0 .058.864-.552 1.672-.61.808-2.24 1.039-2.24 1.039l-.311 2.934s.828 1.045.897 1.672c.068.627.275 2.439.206 2.718-.068.279.483.627.483.627l2.304.098M56.597 42.731c3.246-.736 9.121-1.929 13.189-1.7 4.046.227 6.958 1.477 8.13 2.94 1.172 1.464 1.636 3.512 1.803 5.416.116 1.32.518 3.11.126 3.638-1.131 1.523-3.723 2.361-5.19 2.454-.67.043-3.147.018-5.358-1.396-1.549-.99-2.151-2.165-3.653-2.934-2.473-1.266-3.166-1.266-5.171-3.554-.777-.887-3.82-.795-4.523-.798" stroke="#2C2E3E" stroke-width=".497"/><path d="M55.946 46.893c-1.621-.11-1.64-1.229-1.64-1.229s.073-2.119.21-2.328c0 0 1.03-.304 2.17-.59" stroke="#2C2E3E" stroke-width=".5"/><path d="M112.113 94.358s-.207-2.718-1.586-4.042c-1.379-1.324-3.988-1.645-4.619-2.02-.852-.509-2.926-4.78-3.265-5.718-1.332-3.686-.978-5.9-2.478-7.648-.864-1.006-4.331-3.91-5.357-4.894-2.08-1.995-2.78-4.023-2.926-5.589-.23-2.439.513-4.517.858-5.77.345-1.256 1.33-5.17.087-6.36-.62-.594-2.018-.959-3.397.296-1.38 1.254-2.343 2.091-5.101 2.091s-4.775.777-6.83 1.931c-1.411.793-4.227 2.735-5.12 3.23-1.148.638-3.586 1.813-4.696 3.594-.758 1.22-1.142 3.232-1.28 3.998-.138.767-.64 1.556-1.687 2.166-1.047.61-3.946.362-3.946.362s-2.866-.22-4.226.47c-1.807.915-5.008 9.074-6.503 9.42 0 0-3.555.33-4.468.428l-.681 1.511s.616.37.126 1.258c-.276.503-1.631 2.44-2.837 4.187-.587.85-3.011 3.963-3.011 3.963s-1.831 1.378-5.232 1.808c-3.4.43-16.404 2.835-16.404 2.835L4.19 97.927" stroke="#2C2E3E" stroke-width=".497"/><path d="M119.778 71.595c-.73-2.435.487-4.058 2.424-6.946 1.165-1.738 1.673-4.604 1.673-5.65 0-1.047.697-4.115 1.742-5.93 1.046-1.813 2.021-4.533.348-6.974-.982-1.435-2.957-2.38-5.423-3.48M82.791 108.93c2.9-.054 5.921.17 10.001-.965 9.577-2.663 14.147-9.974 14.147-9.974l4.46-2.79 4.321-.28s2.3-1.116 3.485-2.58c1.185-1.465 3.066-3.95 2.44-6.95M111.731 37.427c-1.138-1.308-.878-2.096-1.098-3.33-.348-1.954.488-5.092-2.23-7.254-2.718-2.163-5.018-7.813-5.018-7.813s-1.252-4.7-8.811-5.58c-7.56-.88-14.066-5.104-18.812-2.64-4.747 2.463-12.658 2.287-16.175 2.287-2.275 0-5.59 2.747-7.646 4.686-1.122 1.058.57 3.688 2.59 5.153 2.022 1.465 5.018 6.906 5.018 6.906l-.418 4.254s0 4.046-.487 5.302c-.488 1.256-1.882 3.278-2.44 4.115-.557.837-.278 3.07-.14 3.976.14.907.419 3.278-.277 4.185-.698.907-2.231 1.953-1.813 6.836.419 4.883.767 6.068.279 8.65-.488 2.58-.975 4.952.14 6.068 1.114 1.116 5.087 3.906 6.342 4.464 1.254.558 1.533.697 2.369 2.232.836 1.535 5.924 3.21 7.039 3.627 1.115.42 2.222.952 2.23 4.534.02 8.63-3.476 10.85-2.858 13.253.86 3.335 2.7 4.841 6.02 6.209" stroke="#2C2E3E" stroke-width=".5"/><path d="M112.054 96.204s-.115 2.162.578 2.98c.693.816 1.56.7 2.657 1.049 1.098.351 3.12 2.278 3.12 2.278M113.73 96.088s-.116 1.226.058 1.518c.172.292 2.425 1.168 3.061 1.635.636.468 3.063 2.395 3.063 2.395" stroke="#2C2E3E" stroke-width=".497"/><mask id="a" maskUnits="userSpaceOnUse" x="0" y="0" width="148" height="126"><path fill-rule="evenodd" clip-rule="evenodd" d="M0 125.777h147.541V0H0v125.777z" fill="#fff"/></mask><g mask="url(#a)"><path fill-rule="evenodd" clip-rule="evenodd" d="M95.867 108.958h3.222V3.974h-3.222v104.984z" fill="#fff"/><path d="M97.432 8.05v98.622" stroke="#2C2E3E" stroke-width=".5"/><path d="M71.43 17.707a3.54 3.54 0 00-3.54 3.54c0 3.38 3.54 7.787 3.54 7.787s3.54-4.408 3.54-7.787a3.54 3.54 0 00-3.54-3.54" stroke="#2C2E3E" stroke-width=".812"/><path d="M71.43 22.673a1.384 1.384 0 110-2.767 1.384 1.384 0 010 2.767" stroke="#2C2E3E" stroke-width=".5"/><path d="M32.903 24.013a3.54 3.54 0 00-3.54 3.54c0 3.38 3.54 7.787 3.54 7.787s3.538-4.408 3.538-7.787a3.54 3.54 0 00-3.538-3.54" stroke="#2C2E3E" stroke-width=".812"/><path d="M32.903 28.98a1.385 1.385 0 11-.001-2.77 1.385 1.385 0 010 2.77" stroke="#2C2E3E" stroke-width=".5"/><path d="M72.034 67.983a3.54 3.54 0 00-3.54 3.54c0 3.379 3.54 7.787 3.54 7.787s3.54-4.408 3.54-7.787a3.54 3.54 0 00-3.54-3.54" stroke="#2C2E3E" stroke-width=".812"/><path d="M72.034 72.95a1.384 1.384 0 110-2.768 1.384 1.384 0 010 2.767" stroke="#2C2E3E" stroke-width=".5"/><path d="M79.463 99.859a3.54 3.54 0 00-3.539 3.54c0 3.379 3.54 7.787 3.54 7.787s3.54-4.408 3.54-7.787a3.54 3.54 0 00-3.54-3.54" stroke="#2C2E3E" stroke-width=".812"/><path d="M79.463 104.825a1.384 1.384 0 11.001-2.769 1.384 1.384 0 010 2.769" stroke="#2C2E3E" stroke-width=".5"/><path d="M116.868 33.43a3.54 3.54 0 00-3.54 3.54c0 3.378 3.54 7.786 3.54 7.786s3.539-4.408 3.539-7.787a3.54 3.54 0 00-3.539-3.54" stroke="#2C2E3E" stroke-width=".812"/><path d="M116.868 38.395a1.385 1.385 0 110-2.769 1.385 1.385 0 010 2.77" stroke="#2C2E3E" stroke-width=".5"/><path d="M121.279 72.413a3.54 3.54 0 00-3.54 3.54c0 3.38 3.54 7.787 3.54 7.787s3.539-4.407 3.539-7.786a3.54 3.54 0 00-3.539-3.54" stroke="#2C2E3E" stroke-width=".812"/><path d="M121.279 77.38a1.385 1.385 0 110-2.77 1.385 1.385 0 010 2.77" stroke="#2C2E3E" stroke-width=".5"/><path d="M5.873 41.302h19.298M24.393 42.934h19.299M24.393 46.03h19.299M11.502 47.55H30.8M5.873 48.957h19.298M15.189 44.454h19.299M27.277 41.302h4.094M18.777 46.03h4.094M36.17 44.454h4.094M18.495 42.934h4.093M29.64 48.957h4.095M32.343 47.55h4.094M33.71 41.302h1.52M11.868 44.454h1.52M15.189 42.934h1.52M36.147 48.957h1.52M37.686 41.302h2.339M43.692 59.484h-19.3M25.171 61.116H5.873M25.171 64.212H5.873M38.062 65.732H18.764M43.692 67.14h-19.3M34.375 62.636H15.077M22.287 59.484h-4.093M30.788 64.212h-4.094M13.394 62.636H9.3M31.07 61.116h-4.094M19.923 67.14H15.83M17.222 65.732h-4.094M15.855 59.484h-1.521M37.697 62.636h-1.522M34.375 61.116h-1.52M13.417 67.14h-1.52M11.878 59.484H9.54M29.394 78.208H10.096M26.511 76.576h-4.094M35.292 78.208h-4.094M20.077 76.576h-1.52M38.598 78.208h-1.521M16.101 76.576h-2.339" stroke="#2C2E3E" stroke-width=".425"/><path fill-rule="evenodd" clip-rule="evenodd" d="M46.608 120.245h3.22V15.261h-3.22v104.984z" fill="#fff"/><path d="M48.12 16.798v101.804" stroke="#2C2E3E" stroke-width=".5"/></g></svg>