<svg width="136" height="142" fill="none" xmlns="http://www.w3.org/2000/svg"><path d="M88.882 37.664c-1.342 2.786-5.16 7.843-7.43 8.565-2.27.723-7.016 1.445-8.358.413-1.343-1.032-3.819-6.604-5.16-9.907-1.343-3.302-1.653-7.946-1.858-10.32-.206-2.373-.103-5.366-.103-5.366s-.62-9.907 4.335-9.185c4.952.723 6.603 1.548 10.524-.31 3.922-1.857 5.678-1.857 6.194 1.136.514 2.993 1.127 5.175 1.406 5.873.787 1.993 1.576 3.695 2.617 1.97 0 0 .671-2.175 2.322-1.763 2.326.582.99 5.453-.082 7.682-.724 1.502-1.722 1.51-1.722 1.51s.199 11.152 3.295 15.693c0 0-7.5 14.089-17.042 16.6-5.421 1.426-2.548-8.308-2.548-8.308" stroke="#2C2E3E" stroke-width=".8"/><path d="M65.87 20.43s-3.862-7.716 1.03-13.623C72.888-.417 82.898-1.139 90.019 2.68c5.45 2.923 7.74 13.003 7.534 18.37-.206 5.366-.104 10.526-5.883 10.63M75.88 46.951s3.123 7.587-.608 13.081M93.527 39.728s4.85-.413 6.295 1.445c0 0 4.371 8.61 5.882 11.145.667 1.12 14.091 13.45 14.687 14.444 1.606 2.675 1.407 11.059.597 17.202-1.193 9.048-3.266 14.478-9.903 28.103-3.6 7.388-3.6 28.226-3.6 28.226" stroke="#2C2E3E" stroke-width=".8"/><path d="M111.115 66.003s-7.818-.429-13.519 11.146c-.11.223-14.88 28.848-16.832 29.542-10.047 3.576-19.347 5.402-31.968 7.727 0 0-2.204 5.39 3.155 8.635 8.35 5.056 29.43 7.433 32.383 7.307 4.85-.206 7.306-1.66 13.336-6.636 7.69-6.345 18.473-22.378 18.473-22.378M99.925 41.998s-27.9 28.423-32.197 39.628l-4.212 18.346" stroke="#2C2E3E" stroke-width=".8"/><path d="M104.78 50.455s-2.585 3.878-5.887 5.99l-4.231-1.237s1.65 4.334 1.444 5.263c-.206.929-30.304 40.595-30.304 40.595M73.509 46.868c-3.835 4.872-8.706 12.749-8.706 12.749l2.59.83-3.587 2.707s-3.634 17.753-4.267 35.028M67.727 81.833c3.19-21.49 8.684-32.788 8.684-32.788" stroke="#2C2E3E" stroke-width=".8"/><path d="M49.294 114.584c-6.66-2.581-19.081-10.638-20.878-12.624-1.89-2.087-2.62-6.598-.627-10.53 3.155-6.224 19.685-24.48 23.4-30.467 2.93-4.722 5.29-6.685 6.528-7.2 1.238-.516 13.2-3.267 13.2-3.267M40.248 89.531s31.093 14.519 40.072 17.202M53.256 88.198s.515-8.113 1.311-14.377" stroke="#2C2E3E" stroke-width=".8"/><path d="M44.178 91.192c-.107-.324-2.381-5.302-.324-5.735 2.056-.433 4.22 7.468 4.22 7.468" stroke="#2C2E3E" stroke-width=".8"/><path d="M45.842 87.105s-1.015-3.165-.04-3.922c.974-.758 2.488.757 3.895 4.221 1.408 3.464 2.383 7.496 2.383 7.496" stroke="#2C2E3E" stroke-width=".8"/><path d="M49.485 86.913s-.958-2.43.575-2.876c1.534-.448 2.685 3.004 3.772 5.624 1.086 2.62 2.326 7.229 2.326 7.229M42.71 87.616s-2.108-.32-1.341 2.237M51.12 122.389s-.555 9.045-1.793 17.714M94.86 43.654l1.762 1.732M98.104 123.483s.741 2.313 1.395 4.586c.732 2.552 1.689 4.595.23 5.415-.922.519-1.433-1.299-2.132-2.995-.965-2.339-1.97-5.061-1.97-5.061" stroke="#2C2E3E" stroke-width=".8"/><path d="M98.98 133.484s-2.149 2.292-2.994.461c-.846-1.832-2.825-6.683-2.825-6.683" stroke="#2C2E3E" stroke-width=".8"/><path d="M95.986 133.945s-1.127 1.973-2.396.705c-1.267-1.268-2.817-5.777-2.817-5.777M99.995 121.484s1.69 5.354 1.55 7.044c-.142 1.691-1.297 2.364-1.297 2.364" stroke="#2C2E3E" stroke-width=".8"/><mask id="a" maskUnits="userSpaceOnUse" x="32" y="139" width="104" height="2"><path fill-rule="evenodd" clip-rule="evenodd" d="M32.31 139.64h103.329v.9H32.309v-.9z" fill="#fff"/></mask><g mask="url(#a)"><path d="M32.31 140.14h103.329" stroke="#2C2E3E" stroke-width=".8"/></g><path clip-rule="evenodd" d="M19.689 137.936H1.523a.913.913 0 01-.913-.913v-25.09c0-.504.409-.913.913-.913h18.166c.504 0 .913.409.913.913v25.09a.913.913 0 01-.913.913z" stroke="#2C2E3E" stroke-width=".8"/><path d="M1.704 110.916v-3.905h17.805v3.905" stroke="#2C2E3E" stroke-width=".8"/><path clip-rule="evenodd" d="M15.617 135.749H5.855a2.226 2.226 0 01-2.225-2.226v-14.054a5.846 5.846 0 015.846-5.846h2.52a5.846 5.846 0 015.847 5.846v14.054a2.226 2.226 0 01-2.226 2.226z" stroke="#2C2E3E" stroke-width=".5"/><path d="M1.704 107.011l-1.302-2.967s-.052-.469.416-.469h18.847s.364.104.26.52l-.416 2.916" stroke="#2C2E3E" stroke-width=".8"/><path d="M20.55 112.998h3.494s1.94-.113 2.69 2.071c.672 1.966 1.365 4.663 1.365 9.587 0 5.381-.91 8.479-1.348 9.663-.32.867-.814 1.586-2.587 1.586h-3.562" stroke="#2C2E3E" stroke-width=".5"/><path d="M20.706 134.276h3.385s1.056.047 1.51-.996c0 0 1.144-2.922 1.144-9.374 0-6.451-1.561-8.56-1.77-8.822-.207-.262-.832-.472-1.614-.472h-2.655" stroke="#2C2E3E" stroke-width=".5"/><path d="M20.595 136.892v2.567a.68.68 0 01-.678.681H1.297a.68.68 0 01-.679-.681v-2.567" stroke="#2C2E3E" stroke-width=".8"/><path d="M2.539 103.587v0c0-1.138.867-2.06 1.937-2.06h12.439c1.069 0 1.936.922 1.936 2.06" stroke="#2C2E3E" stroke-width=".5"/><path clip-rule="evenodd" d="M12.368 99.855a1.672 1.672 0 11-3.344 0 1.672 1.672 0 013.344 0z" stroke="#2C2E3E" stroke-width=".5"/><path d="M8.608 122.782h9.255M3.564 124.638h7.852M6.752 126.502h11.11M3.564 128.365h14.299M3.564 130.229h14.299M3.564 132.093h14.299M3.564 133.956h14.299M13.367 124.638h3.045M4.85 122.782h1.902" stroke="#2C2E3E" stroke-width=".5"/><path fill-rule="evenodd" clip-rule="evenodd" d="M23.448 125.319v11.278c0 1.91 1.566 3.542 3.477 3.542H40c1.909 0 3.3-1.632 3.3-3.542v-11.278H23.448z" fill="#fff"/><path clip-rule="evenodd" d="M23.448 125.319v11.278c0 1.91 1.566 3.542 3.477 3.542H40c1.909 0 3.3-1.632 3.3-3.542v-11.278H23.448z" stroke="#2C2E3E" stroke-width=".8"/><path d="M43.449 135.628a4.2 4.2 0 00.679.061c1.988 0 3.599-1.128 3.599-3.552 0-2.582-1.611-3.551-3.6-3.551-.232 0-.43.022-.7.064" stroke="#2C2E3E" stroke-width=".8"/><path d="M37.393 128.432l.108-.225-.108-.052-.108.052.108.225zm-2.616 1.255l-.108-.225-.142.068v.157h.25zm0 7.461h-.25v.25h.25v-.25zm5.232 0v.25h.25v-.25h-.25zm0-7.461h.25v-.157l-.142-.068-.108.225zm-2.638 2.859a.734.734 0 01-.734-.735h-.5c0 .682.551 1.235 1.234 1.235v-.5zm-.734-.735c0-.407.329-.736.734-.736v-.5c-.683 0-1.234.555-1.234 1.236h.5zm.734-.736c.405 0 .735.33.735.736h.5c0-.682-.553-1.236-1.235-1.236v.5zm.735.736c0 .406-.33.735-.735.735v.5c.682 0 1.235-.553 1.235-1.235h-.5zm-.821-3.604l-2.616 1.255.216.45 2.616-1.255-.216-.45zm-2.758 1.48v7.461h.5v-7.461h-.5zm.25 7.711h5.232v-.5h-5.232v.5zm5.482-.25v-7.461h-.5v7.461h.5zm-.142-7.686l-2.616-1.255-.216.45 2.616 1.255.216-.45z" fill="#2C2E3E"/><path d="M37.393 130.795v-6.778c0-.918-.764-1.663-1.682-1.663-.918 0-1.68.745-1.68 1.663v1.174" stroke="#2C2E3E" stroke-width=".5"/><path d="M83.892 77.158l7.58 3.075a.67.67 0 01.367.872l-2.745 6.766a.672.672 0 01-.872.37l-9.759-3.96" stroke="#2C2E3E" stroke-width=".8"/><path d="M81.973 79.932l5.794 2.295M80.662 81.79l3.717 1.421" stroke="#2C2E3E" stroke-width=".5"/></svg>