<svg width="61" height="41" fill="none" xmlns="http://www.w3.org/2000/svg"><path d="M44.014 37.943H30.497a6.758 6.758 0 01-6.758-6.758v-6.759a6.758 6.758 0 016.758-6.758h13.517" stroke="#fff" stroke-width="1.2" stroke-linecap="round" stroke-linejoin="round"/><path clip-rule="evenodd" d="M44.014 35.69v2.253a2.253 2.253 0 002.253 2.253h2.253v-24.78h-2.253a2.253 2.253 0 00-2.253 2.253V35.69zM59.783 23.3v0a2.253 2.253 0 01-2.253 2.253h-9.01v-4.505h9.01a2.253 2.253 0 012.253 2.252zM59.783 32.311v0a2.253 2.253 0 01-2.253 2.253h-9.01v-4.506h9.01a2.253 2.253 0 012.253 2.253zM20.36 28.932V26.68a2.253 2.253 0 012.253-2.253h1.126v6.758h-1.126a2.253 2.253 0 01-2.253-2.253z" stroke="#fff" stroke-width="1.2" stroke-linecap="round" stroke-linejoin="round"/><path d="M20.36 27.806H7.508M7.508 14.29A6.757 6.757 0 00.75 21.046a6.758 6.758 0 006.758 6.76M22.125 14.267a6.758 6.758 0 000-13.517M7.509 14.29H22.2" stroke="#fff" stroke-width="1.2" stroke-linecap="round" stroke-linejoin="round"/></svg>