<svg width="53" height="38" fill="none" xmlns="http://www.w3.org/2000/svg"><path clip-rule="evenodd" d="M.75 18.154a3.896 3.896 0 003.896 3.895h43.723a3.896 3.896 0 003.897-3.895V4.646A3.896 3.896 0 0048.369.75H4.646A3.896 3.896 0 00.75 4.646v13.508z" stroke="#fff" stroke-width="1.2" stroke-linecap="round" stroke-linejoin="round"/><path clip-rule="evenodd" d="M7.504 22.05h28.138v-7.013H7.504v7.014zM40.88 16.075a1.299 1.299 0 110 2.598 1.299 1.299 0 010-2.598zM46.075 16.075a1.3 1.3 0 110 2.6 1.3 1.3 0 010-2.6z" stroke="#fff" stroke-width="1.2" stroke-linecap="round" stroke-linejoin="round"/><path d="M7.374 5.945h38.788M7.374 10.101h38.788M10.923 27.375v4.676M18.715 27.375v7.273M26.508 27.375v9.87M34.3 27.375v7.273M42.093 27.375v4.676" stroke="#fff" stroke-width="1.2" stroke-linecap="round" stroke-linejoin="round"/></svg>