<svg width="41" height="44" fill="none" xmlns="http://www.w3.org/2000/svg"><path clip-rule="evenodd" d="M8.433 38.03v0l2.59-9.596L31.82 7.636a4.956 4.956 0 017.007 0 4.956 4.956 0 010 7.007L18.03 35.441l-9.596 2.59z" stroke="#fff" stroke-width="1.2" stroke-linecap="round" stroke-linejoin="round"/><path d="M30.727 8.73l7.051 7.052M9.66 33.545l3.215 3.213M11.022 28.435l5.333 1.719 17.719-17.72M16.355 30.153l1.674 5.288" stroke="#fff" stroke-width="1.2" stroke-linecap="round" stroke-linejoin="round"/><path d="M32.27 26.006v14.371a2.736 2.736 0 01-2.737 2.736H3.738A2.736 2.736 0 011 40.377V3.736A2.738 2.738 0 013.738 1h25.795a2.738 2.738 0 012.737 2.736" stroke="#fff" stroke-width="1.2" stroke-linecap="round" stroke-linejoin="round"/></svg>