<svg width="46" height="34" fill="none" xmlns="http://www.w3.org/2000/svg"><path clip-rule="evenodd" d="M.75 6.13v20.472c0 3.466 2.842 6.43 6.31 6.43h23.732c3.465 0 5.99-2.964 5.99-6.43V6.13H.75z" stroke="#fff" stroke-width="1.2" stroke-linecap="round" stroke-linejoin="round"/><path d="M37.053 24.843c.47.072.821.11 1.231.11 3.61 0 6.534-2.047 6.534-6.446 0-4.688-2.925-6.447-6.534-6.447-.42 0-.78.04-1.27.117" stroke="#fff" stroke-width="1.2" stroke-linecap="round" stroke-linejoin="round"/><path d="M26.061 11.78l.26-.54a.6.6 0 00-.52 0l.26.54zm-4.748 2.279l-.26-.541a.6.6 0 00-.34.54h.6zm0 13.542h-.6a.6.6 0 00.6.6v-.6zm9.496 0v.6a.6.6 0 00.6-.6h-.6zm0-13.542h.6a.6.6 0 00-.34-.541l-.26.54zm-4.788 5.043a1.189 1.189 0 01-1.188-1.19h-1.2c0 1.32 1.07 2.39 2.388 2.39v-1.2zm-1.188-1.19a1.19 1.19 0 011.188-1.188v-1.2a2.39 2.39 0 00-2.388 2.389h1.2zm1.188-1.188a1.19 1.19 0 011.188 1.189h1.2a2.39 2.39 0 00-2.388-2.389v1.2zm1.188 1.189c0 .656-.533 1.189-1.188 1.189v1.2a2.389 2.389 0 002.388-2.39h-1.2zm-1.408-6.673l-4.748 2.278.52 1.082 4.747-2.278-.519-1.082zm-5.088 2.819V27.6h1.2V14.059h-1.2zm.6 14.142h9.496V27h-9.496v1.2zm10.096-.6V14.059h-1.2V27.6h1.2zm-.34-14.083L26.32 11.24l-.52 1.082L30.55 14.6l.52-1.082z" fill="#fff"/><path d="M26.061 16.071V3.768c0-1.667-1.386-3.018-3.052-3.018-1.667 0-3.052 1.351-3.052 3.018v2.13" stroke="#fff" stroke-width="1.2" stroke-linecap="round" stroke-linejoin="round"/></svg>