<svg width="43" height="43" fill="none" xmlns="http://www.w3.org/2000/svg"><path d="M34.347 12.811V2.656A1.906 1.906 0 0032.442.75H10.41a1.906 1.906 0 00-1.906 1.906v10.155M30.04 30.04H12.81m13.784 3.446H12.81m17.23 3.446H12.81m24.121-20.676a1.724 1.724 0 110 3.447 1.724 1.724 0 010-3.447zm-2.584 10.532v13.395A1.917 1.917 0 0132.43 42.1H10.42a1.918 1.918 0 01-1.917-1.917V26.788c0-1.059.86-1.917 1.917-1.917h22.01c1.06 0 1.917.858 1.917 1.917zM2.474 34.347A1.724 1.724 0 01.75 32.624v-18.09c0-.952.773-1.723 1.724-1.723h37.904c.95 0 1.722.771 1.722 1.723v18.09c0 .952-.772 1.723-1.723 1.723H2.474z" stroke="#fff" stroke-width="1.2" stroke-linecap="round" stroke-linejoin="round"/></svg>