<svg width="740" height="484" fill="none" xmlns="http://www.w3.org/2000/svg"><mask id="a" maskUnits="userSpaceOnUse" x="24" y="1" width="610" height="443"><path fill-rule="evenodd" clip-rule="evenodd" d="M24.014 1h609.018v442.744H24.014V1z" fill="#fff"/></mask><g mask="url(#a)"><path fill-rule="evenodd" clip-rule="evenodd" d="M300.814 3.458C385.289 16.742 428.507 92.34 527.62 131.855c173.519 69.181 100.716 240.312 9.639 274.456-91.076 34.144-115.679-14.744-252.407 26.125-162.967 48.711-286.134-66.097-256.389-226.46C51.41 82.27 177.337-15.96 300.814 3.458z" fill="#EFF5F9"/></g><mask id="b" maskUnits="userSpaceOnUse" x="0" y="74" width="162" height="242"><path fill-rule="evenodd" clip-rule="evenodd" d="M0 74.382h161.332V315.58H0v-241.2z" fill="#fff"/></mask><g mask="url(#b)"><path fill-rule="evenodd" clip-rule="evenodd" d="M159.138 206.213c-9.173-30.456-16.314-28.531-28.113-27.737-11.799.795-21.969.634-14.393-12.576 7.576-13.209 17.349-18.947 10.939-26.134-6.411-7.188-24.345-22.065-24.345-22.065s-7.253-7.131-14.441-.72c-7.187 6.41-21.448 20.917-26.343 11.087-4.896-9.829 5.71-28.322-1.371-32.924-7.083-4.603-50.584-21.99-57.27-20.694-6.685 1.297-2.624 23.882-2.113 31.467.51 7.585-1.611 26.353 11.37 30.557 12.983 4.205 27.48 5.769 25.52 14.366-1.96 8.599-19.545 11.477-20.606 20.86-1.062 9.384 3.389 25.17 6.145 28.37 2.754 3.201 19.723 3.751 24.893 5.096 5.17 1.345 17.14 3.079 9.507 15.445-7.633 12.368-21.847 15.017-11.554 29.562 10.292 14.546 72.134 65.408 72.134 65.408l10.955-.738s41.081-68.801 29.086-108.63z" fill="#DAE7EF"/></g><path d="M410.834 286.832s-5.672-3.215-9.008-8.604" stroke="#2C2E3E" stroke-width=".581" stroke-linecap="round"/><path fill-rule="evenodd" clip-rule="evenodd" d="M565.136 310.379s69.427-22.09 78.894-32.609c9.467-10.519-4.207-15.779-7.364-28.402-3.155-12.623 25.246-4.208 31.558-2.104 6.311 2.104 7.363-8.415 11.571-18.934 4.207-10.519-2.104-10.519-8.415-22.091-6.311-11.57 7.363-10.519 27.35-11.57 19.986-1.052 43.128-30.506 21.038-43.129-22.09-12.623-62.064 1.052-62.064 1.052s-96.595 26.976-92.568 157.787z" fill="#DAE7EF"/><path fill-rule="evenodd" clip-rule="evenodd" d="M516.027 210.604c7.17-31.284 14.489-29.831 26.422-29.831 11.932 0 22.16-.852 13.637-13.636-8.524-12.785-18.751-17.899-12.785-25.57 5.966-7.671 23.012-23.864 23.012-23.864s6.818-7.671 14.489-1.705c7.671 5.966 23.013 19.603 27.274 9.376 4.262-10.228-7.67-28.126-.852-33.24 6.819-5.114 49.434-25.57 56.252-24.717 6.819.852 4.262 23.864 4.262 31.535 0 7.671 3.409 26.422-9.376 31.535-12.784 5.114-27.273 7.671-24.717 16.194 2.558 8.523 20.456 10.228 22.16 19.603 1.705 9.376-1.704 25.57-4.261 28.979-2.557 3.409-19.603 5.113-24.717 6.818-5.113 1.705-17.046 4.262-8.523 16.194 8.523 11.932 23.012 13.637 13.637 28.978-9.376 15.342-68.185 70.742-68.185 70.742h-11.08s-46.024-66.48-36.649-107.391z" fill="#FF2D23"/><path d="M659.215 74.236S550.973 212.309 558.643 317.995" stroke="#fff"/><path fill-rule="evenodd" clip-rule="evenodd" d="M584.546 281.962s6.848-30.467.314-37.159c-4.908-5.027-43.141-15.115-43.141-15.115l16.734-44.658 5.31-10.135s3.908-5.786 0-8.187c-2.592-1.592-10.393 0-10.393 0l-15.429 2.834-24.248 2.519-22.358.63-32.435-1.89s-5.353-3.778-10.077-1.574c-4.723 2.204-3.149 9.132-3.149 9.132l-190.2 1.26-115.153.346s-8.508.198-13.059 4.749c0 0-10.101-1.157-19.591-2.968-8.514-1.625-16.585-4.151-15.632-.594 1.171 4.373 3.974 10.851 6.53 19.393 3.92 13.104 7.717 28.495 7.717 28.495l-41.642 13.874s-9.132 2.204-5.984 21.098l11.45 74.719s.253 10.35 5.918 14.926c3.39 2.737 18.302 1.961 18.302 1.961l.654 39.436 3.922 1.525 5.664-1.307 5.448-39.436 59.699-.218 335.301 4.419 25.131-52.438 52.101-8.744 2.296-16.893z" fill="#fff"/><path d="M87.185 291.47s.852-23.557-3.122-34.91c-5.79-16.54-20.192-12.904-20.192-12.904M188.225 268.481s-47.966 1.987-61.021 5.393c-13.056 3.406-20.436 6.527-20.436 6.527s-1.419 0-.851-3.405c.568-3.406 6.244-23.557 3.973-34.91-2.27-11.353-11.352-43.708-12.771-46.83-1.42-3.122-4.9-13.687-4.615-15.106.284-1.419 12.556.646 15.111 1.498 2.554.851 29.806 4.81 36.901 5.377 7.096.568 19.868.568 19.868.568" stroke="#C4D0D6"/><path d="M127.625 184.778s2.587-4.22 11.163-4.492c8.576-.273 24.775-.817 24.775-.817M169.961 178.789l76.794.471M542.546 229.156s31.037 9.938 36.211 11.707c5.173 1.77 9.665 3.675 9.12 14.974-.545 11.299-8.439 67.656-13.204 83.447-4.765 15.791-13.205 15.519-16.744 15.655-3.539.136-472.64.545-472.64.545s-11.117 2.102-13.998-10.656c0 0-12.772-73.793-13.624-87.133-.851-13.339 6.244-14.191 9.934-15.61 3.69-1.419 39.451-13.623 39.451-13.623" stroke="#C4D0D6"/><path d="M105.708 280.341s-17.696 7.215-17.288 14.157l1.089 16.744s-.408 6.807 9.802 7.079c10.21.272 130.819-1.906 134.767-2.042 3.947-.136 9.12-1.77 10.754-7.215" stroke="#C4D0D6"/><path d="M88.284 293.409s58.127-1.225 83.991-1.634c25.864-.408 71.06-2.45 71.06-2.45" stroke="#C4D0D6"/><path clip-rule="evenodd" d="M252.592 275.304s-8.304 11.299-8.168 14.975c.136 3.675 0 17.424 0 17.424s.136 4.492 4.356 6.262c4.22 1.77 19.874 2.859 29.676 2.995 0 0 59.624 2.042 86.851.408 27.225-1.633 34.576-3.812 35.393-8.032.817-4.22.136-20.011.136-20.011s-.408-2.586-4.084-7.214c-3.676-4.629-8.031-12.932-8.031-12.932s-2.587-2.996-10.618-2.996H273.692s-15.111-.544-21.1 9.121z" stroke="#C4D0D6"/><path d="M254.497 272.309s-1.225-3.403-14.157-2.995M389.81 271.356s1.497-3.948 9.665-3.948 52.001.681 63.845 1.226c11.843.544 57.309 3.811 67.111 6.262 9.801 2.45 26.137 8.712 26.409 12.523v21.373s.273 4.084-4.492 5.309c-4.765 1.225-54.452 5.309-84.673 4.764-30.22-.544-66.974-1.497-66.974-9.529" stroke="#C4D0D6"/><path d="M400.836 289.325s51.593.408 87.395.408c35.801 0 68.472-.272 68.472-.272M555.479 285.65s1.089-22.053 4.084-30.357c2.994-8.304 9.257-15.247 22.733-13.341M399.747 289.598l-153.962-.136M283.901 266.32s4.084-1.498 2.314-5.445c-1.77-3.948-8.848-11.435-10.618-18.922-1.77-7.487-9.801-40.158-12.524-49.415-2.723-9.257-6.943-14.838-9.665-14.974-2.723-.136-8.985 2.859-12.388 4.356-3.403 1.498-43.425 1.225-49.415 1.089-5.989-.136-21.235-3.675-22.869-4.492-1.634-.817-6.942-.996-6.942 4.356 0 2.314 3.266 6.943 3.266 6.943s15.081 18.98 18.893 35.723c3.811 16.744 4.658 33.975 4.929 37.65.273 3.675-1.224 9.801 4.629 10.21 5.854.408 48.19-4.629 54.452-5.037 6.261-.408 15.791-.817 15.791-.817" stroke="#C4D0D6"/><path clip-rule="evenodd" d="M289.074 227.931a2.859 2.859 0 11-5.718-.002 2.859 2.859 0 015.718.002zM326.646 227.931a2.858 2.858 0 11-5.718 0 2.858 2.858 0 015.718 0zM365.17 227.931a2.858 2.858 0 11-5.718 0 2.858 2.858 0 015.718 0zM404.648 227.931a2.859 2.859 0 11-5.718-.002 2.859 2.859 0 015.718.002z" stroke="#C4D0D6"/><path d="M533.426 275.713c1.77 0 2.858-1.634 2.313-5.309-.543-3.675-1.905-20.556 3.812-34.169 5.718-13.612 16.881-47.645 20.556-54.587 3.675-6.943 6.942-10.346 5.037-13.885-1.906-3.54-12.252-1.634-15.246-.817-2.995.817-26.41 4.492-45.059 5.173-18.65.68-44.379-.681-50.504-3.131-6.126-2.45-7.76 2.042-8.032 4.084-.273 2.041-3.267 24.639-7.078 38.252-3.812 13.613-20.556 51.184-20.556 51.184s-1.634 2.314-1.089 4.765M94.856 355.397l.168 38.938s0 1.855 4.383 1.855 5.057-.843 5.225-1.855l5.732-38.938M534.14 355.228l5.731 38.096s.506 2.192 4.72 2.192c4.215 0 5.226-1.181 5.226-2.36v-38.433" stroke="#C4D0D6"/><path fill-rule="evenodd" clip-rule="evenodd" d="M419.252 236.252c-2.964 0-7.812 1.467-7.812 1.467l-6.829 1.787-12.034-23.94 10.125-6.98 20.008-29.395.988 55.332-4.446 1.729zm87.666-91.873l.376-3.518-2.629-4.552-27.545-11.126-3.881-7.761-5.299-.92-1.534-3.888 1.345-9.261-18.597-17.283-14.653.94-4.706 4.683-2.615 8.099-.506 4.977 1.687 1.94-.843 10.292.422 2.193 3.626-.085 1.997 6.035.028 3.92 1.286 2.279-13.149 3.006-7.515 3.569-3.893 9.245-21.558 45.382-23.632-23.33-7.603-8.733-1.546.901-3.733-4.12-3.862-8.369-.774-6.953-3.347-5.022-2.189-4.763-2.059.643.128 3.091 1.802 4.249.387 2.961-10.559-7.983-5.536-4.506-1.416.643-2.06 1.545 1.416 4.893 2.189 7.082 3.348 5.15 10.557 8.627 4.25 4.12-.902.386 2.704 4.893-1.159.644 21.62 29.822-42.305-.523-1.318.637.185 1.661 27.964 54.434 4.035.385s-6.323.904-7.827 18.213c-1.505 17.31-11.44 105.664-11.44 105.664l20.922 1.053 17.762-86.096s1.053-6.321 5.719-5.87l12.644 97.536 24.835-2.71-7.128-95.473s33.318 1.4 42.198 1.098c8.881-.3 22.127-1.956 25.74-5.569 3.612-3.612 9.482-17.61 10.536-24.986l.3-4.816h2.559l1.054-31.91s10.235-3.311 10.385-8.58c.085-2.954 1.971-21.635 2.861-39.586.696-14.058.451-28.599.451-28.599zM184.131 229.297c-1.338-1.234-1.151 21.79-1.151 21.79h2.055l-2.484 16.321s2.967 13.309 11.886 19.927c17.426 12.929 45.546 12.28 45.546 12.28l-3.245 39.789s12.327 10.812 39.14 7.136c0 0 21.408-45.627 21.408-46.276 0-.649 7.353-11.028-.865-18.813-3.74-3.543-14.221-12.708-26.002-20.217-14.102-8.987-29.483-16.168-29.483-16.168s-2.694-3.595-4.205-8.8c-1.511-5.205-1.007-8.899-1.007-8.899l-51.593 1.93z" fill="#fff"/><path fill-rule="evenodd" clip-rule="evenodd" d="M177.056 215.714s-42.167 5.838-40.558-48.919c.254-8.632 7.093-11.572 7.653-19.225 0 0-1.68-19.597 10.826-26.129 12.505-6.533 19.322-5.843 24.014-18.173 8.843-23.248 32.75-22.88 42.629-18.3 14.143 6.558 28.347 39.24 8.77 70.746l-53.334 60z" fill="#2C2E3E"/><path fill-rule="evenodd" clip-rule="evenodd" d="M198.083 132.359l-.904 7.917s-4.872-.324-5.534 1.222c-.663 1.546-9.23 7.768-13.536 9.423-4.304 1.656-8.675 1.704-9.001 10.299-.182 4.854 1.632 27.424 5.353 43.951 1.745 7.755 5.262 24.973 8.352 27.953 3.091 2.981 6.513 5.52 15.566 1.987 9.052-3.532 37.681-4.218 37.681-4.218s-3.359-11.417 2.488-11.548c1.136-.026 5.643 2.961 8.293 4.506 2.649 1.546 5.622.057 7.697-1.957 2.075-2.014 5.433-6.103 6.042-8.24 0 0 1.465-2.441 1.771-3.112.304-.672 1.328-1.16.389-2.106l-4.6 2.777.61-2.563s4.027-1.832 4.455-2.991c.427-1.159.488-2.136.488-2.136s.855-1.038.061-2.563c0 0 .366-1.465-1.281-.916-1.649.549-2.076.855-2.076.855s-.548-2.625-3.966-2.808c-3.418-.183-3.846-.549-3.846-.549s.542-3.534-1.193-3.445c-1.737.088-2.654 3.343-2.654 3.343s-7.388.015-10.134 1.541c0 0 .82-15.428.454-23.606-.367-8.179-1.566-16.761-5.448-20.126-2.27-1.967-12.388-7.11-12.388-7.11l-5.982-3.244-2.331-.709-2.23-.811s-.148 1.268-.626-1.48c-.563-3.236-.457-4.327-.457-4.327l-11.513-5.209z" fill="#fff"/><path d="M211.46 144.709c-1.97-2.814-1.23-4.924-1.23-4.924M238.452 198.83c2.118-27.086-.754-41.84-6.355-44.488-1.498-.708-13.004-8.94-21.013-10.359M189.503 179.026c1.081 17.381 7.39 39.763 7.39 39.763 8.673-2.768 33.589-9.228 33.589-9.228 0 6.091 4.981 11.548 4.981 11.548s.33 1.124-1.323 1.719c-1.654.595-36.51 12.756-36.51 12.756-9.894 3.215-14.239-.287-16.681-6.079-1.607-3.816-2.495-7.992-3.729-12.472-6.488-23.561-8.436-54.353-8.436-54.353.65-8.11 3.012-9.612 6.209-10.651 11.155-3.625 17.364-11.069 17.364-11.069s1.868-.613 4.751-.613" stroke="#2C2E3E" stroke-linecap="round"/><path d="M192.912 141.652s25.922 24.946 33.539 58.411c.274 1.203 1.455 7.311 1.669 8.992M230.612 208.432c-.11-7.728.798-18.698-.029-25.27-1.274-10.114-12.519-29.14-14.075-31.827-1.556-2.688-4.816-6.338-4.816-6.338M219.125 155.861s2.334 9.831-13.934.212M247.433 207.909s-.792.088-4.838-.352c-4.047-.44-6.246-.792-8.006.088-1.76.88-4.661 2.186-4.661 2.186M251.04 207.821s2.902.88 5.542 0c0 0 1.407 1.32-.264 2.727-1.672 1.408-5.367 1.232-5.367 1.232M260.131 201.333s4.409-.149 1.645 7.473" stroke="#2C2E3E" stroke-linecap="round"/><path d="M247.433 211.692s-3.694-.352-2.199 1.144c1.495 1.495 5.19 2.903 9.149.704 3.958-2.2 7.478-4.927 8.358-5.103.879-.176.879 1.232-.792 2.639-1.672 1.408-4.223 3.959-4.575 4.135-.352.176-4.838 2.376-4.838 2.376" stroke="#2C2E3E" stroke-linecap="round"/><path d="M261.948 211.076s-1.672 3.695-3.343 5.103c-1.672 1.407-5.631 3.958-5.631 3.958" stroke="#2C2E3E" stroke-linecap="round"/><path d="M260.101 214.507s-.615 2.199-1.936 3.607c-1.319 1.407-3.782 4.223-5.013 5.014-1.233.792-3.608 2.551-6.95.528-3.343-2.024-5.895-4.751-7.654-4.311-1.759.44-3.079 1.672-3.079 1.672M237.344 200.395s-.246 2.706 1.23 6.314M260.012 200.607s.439 5.103-2.199 10.821" stroke="#2C2E3E" stroke-linecap="round"/><path clip-rule="evenodd" d="M247.263 207.458s-.446-3.067 1.576-2.979c2.024.087 2.2 2.727 2.2 4.662s-.176 3.167-1.672 3.343c-1.495.176-1.759-1.056-1.847-2.639-.088-1.584-.257-2.387-.257-2.387zM260.1 200.519c0 1.701-5.087 3.079-11.362 3.079-6.276 0-11.363-1.378-11.363-3.079 0-1.7 5.087-3.079 11.363-3.079 6.275 0 11.362 1.379 11.362 3.079z" stroke="#2C2E3E" stroke-linecap="round"/><path clip-rule="evenodd" d="M260.1 200.519c0 1.701-5.087 3.079-11.362 3.079-6.276 0-11.363-1.378-11.363-3.079 0-1.7 5.087-3.079 11.363-3.079 6.275 0 11.362 1.379 11.362 3.079z" stroke="#2C2E3E" stroke-linecap="round"/><path fill-rule="evenodd" clip-rule="evenodd" d="M258.369 202.032c1.393-1.064-4.947-2.569-9.622-2.569-4.669 0-8.601.962-9.77 2.269 0 0 1.449 1.352 4.472 1.614 3.024.264 12.641.428 14.92-1.314z" fill="#2C2E3E"/><path d="M249.104 196.912s.615-3.079 2.287-2.815c1.671.264 1.232 2.815 1.232 2.815" stroke="#2C2E3E" stroke-linecap="round"/><path fill-rule="evenodd" clip-rule="evenodd" d="M196.265 145.131c1.266-5.136 1.648-11.666.211-17.236-1.645-6.373-3.589-7.259-.064-15.25 3.527-7.993 2.193-10.826 8.66-16.388.178-.153 6.597 8.408 20.049 15.652 0 0 .673 15.779-5.673 21.185 0 0-5.171 4.936-6.581 6.112-1.411 1.175-6.112 1.175-12.223-4.231" fill="#fff"/><path d="M196.265 145.131c1.266-5.136 1.648-11.666.211-17.236-1.645-6.373-3.589-7.259-.064-15.25 3.527-7.993 2.193-10.826 8.66-16.388.178-.153 6.597 8.408 20.049 15.652 0 0 .673 15.779-5.673 21.185 0 0-5.171 4.936-6.581 6.112-1.411 1.175-6.112 1.175-12.223-4.231" stroke="#2C2E3E" stroke-width=".871" stroke-linecap="round"/><path d="M183.355 233.579l-.479 16.61s.336 1.079 1.021 1.045c4.175-.212 20.114-1.095 36.013-2.975 1.252-.148 20.938-3.352 20.938-3.352-3.882-9.834-4.214-19.478-3.549-25.131" stroke="#2C2E3E" stroke-linecap="round"/><path d="M240.849 244.907s44.544 21.407 58.168 39.572c0 0 4.324 4.757-3.46 19.894-7.785 15.137-19.679 42.167-19.679 42.167s-26.165 3.892-39.139-7.136c0 0 3.027-36.329 3.244-39.789 0 0-71.199 1.284-55.048-48.24M477.129 125.194s19.421 7.666 26.849 11c1.474.663 3.088 2.664 3.15 4.525.469 13.938-2.606 69.357-3.815 73.588-1.371 4.796-60.975 30.145-60.975 30.145s-1.045-11.833-5.841-15.601l46.605-24.136s-2.398-37.681-2.398-41.791M434.928 131.364s-18.705 2.916-21.103 7.369c-2.398 4.453-22.951 52.411-24.664 53.439-1.712 1.027-31.748-31.497-31.748-31.497s-6.177 4.612-12.343 8.038c0 0 20.599 28.545 22.312 29.23" stroke="#2C2E3E" stroke-linecap="round"/><path d="M429.742 92.242s-3.874 9.815-3.1 12.657c0 0 2.469 1.392 1.931 4.085-.538 2.692-1.795 9.513-.359 10.231s3.231-.179 3.231-.179 1.615 4.128 1.795 5.744c.18 1.616-.18 6.821 2.872 7.001 3.052.179 13.643-.898 19.207-10.591M432.378 234.609s-5.79.896-9.336 1.152c-3.547.257-7.522-.144-9.524.657-2.002.8-7.151 3.212-8.077 3.488-.927.276-1.61 1.397-2.179 2.568-.57 1.17-2.927 4.942-3.301 6.128-.374 1.187 1.023 1.382 1.023 1.382" stroke="#2C2E3E" stroke-linecap="round"/><path d="M414.218 243.939s-3.104.958-3.853 1.446c-.748.488-7.299 6.502-8.519 7.461-1.22.959-2.26.243-1.658-.846.601-1.089 6.667-9.265 6.878-9.444 0 0 .633-1.008 2.812-1.69 2.179-.683 5.706-1.999 5.706-1.999M419.957 241.55s-3.219.438-4.568 1.544c-1.35 1.105-5.236 4.356-6.065 5.348-.829.991.049 2.714 3.202.699 3.155-2.015 5.382-3.283 6.13-3.299.747-.017 4.925.765 7.901.895 2.974.13 6.861-2.395 9.706-3.062M411.44 237.225s-6.422 1.625-6.828 1.787c-.406.163-6.894 4.454-7.755 5.364-.862.91-.163 1.951 1.251 1.479 1.415-.471 4.032-1.706 4.032-1.706" stroke="#2C2E3E" stroke-linecap="round"/><path fill-rule="evenodd" clip-rule="evenodd" d="M426.419 78.109s-5.564 16.335 5.026 14.181c10.591-2.154 13.284-3.052 13.284-3.052s1.256 11.309 7.539 15.617c0 0 4.668-5.924 7.54-5.744 2.872.18 5.205 4.308 3.41 8.616s4.129 5.565 4.129 5.565-1.077-6.283 1.615-13.822c2.692-7.539 2.514-19.925-7.539-21.182 0 0-4.309-7.359-12.566-5.385-8.256 1.975-18.668 7.181-22.438 5.206z" fill="#2C2E3E"/><path d="M466.629 113.292s.857 4.387 3.661 7.642" stroke="#2C2E3E" stroke-linecap="round"/><path fill-rule="evenodd" clip-rule="evenodd" d="M446.334 141.332l1.399 8.044s-11.707 29.302-9.232 71.711l5.301 3.535 9.542-4.948s-7.421-43.117-1.06-69.623l4.019-7.845-9.969-.874z" fill="#2C2E3E"/><path clip-rule="evenodd" d="M456.303 142.206s13.116-20.111 13.815-20.985c.7-.875 3.148-3.848 3.148-3.848l3.848 7.87-14.645 24.145-6.166-7.182z" stroke="#2C2E3E" stroke-linecap="round"/><path d="M473.164 117.021l-5.34-.235M437.442 132.05l1.957 15.239 6.935-5.958-1.399-11.192M492.503 221.602l-.175 33.402s-45.974-7.926-60.49-9.325M489.705 254.829c0 .524-3.848 25.357-14.69 29.38-10.843 4.022-26.233 3.672-26.233 3.672l-37.948-1.049 7.694 104.579M388.099 254.129s-9.443 4.197-9.443 14.166c0 9.967 14.865 118.743 14.865 118.743M352.246 157.661s-1.723-2.563-3.057-5.875c-1.334-3.311-1.355-8.379-1.702-9.397-.347-1.017-2.594-4.384-3.362-5.71-.769-1.327-2.076-4.579-2.076-4.579s-2.254-.913-2.178 1.965c.075 2.879 1.633 5.736 1.982 6.361.35.625.507 2.651.507 2.651s-4.238-2.657-6.41-4.423c-2.173-1.766-7.417-6.283-8.356-7.036-.94-.753-2.425-1.618-3.053-.237" stroke="#2C2E3E" stroke-linecap="round"/><path d="M326.368 134.046s-.994-2.789-2.417-2.793c-1.423-.006-1.8 1.618-.787 3.333 1.014 1.715 1.298 2.233 1.298 2.233M327.781 135.755l5.409 5.868" stroke="#2C2E3E" stroke-linecap="round"/><path d="M325.526 142.08s-1.241-3.625-1.281-4.033c-.04-.408.652-2.599.958-3.268.305-.669 1.425-1.026 2.219-.279.794.747-.21 3.112-.21 3.112l.756 1.588M328.971 141.141l2.588 2.559" stroke="#2C2E3E" stroke-linecap="round"/><path d="M328.267 142.93s1.187-2.198.735-2.813c-.452-.616-1.253-1.218-1.966-.509-.714.709-1.677 3.091-1.677 3.091s.45 2.285 1.034 3.197c.584.911 3.677 4.504 5.144 5.804 1.467 1.299 6.899 5.838 9.601 7.758.844.6 2.319 2.257 3.236 3.286M355.959 161.679l-3.426-4.162-8.899 5.742 2.584 4.592M423.729 235.428c.861-14.353-2.159-69.012-2.159-69.012M420.136 181.638c0 .43-10.622 17.072-14.641 23.1-4.019 6.028-11.769 10.334-12.918 10.334M437.789 231.147l-5.598 3.301s4.737 5.024 4.306 10.621l5.454-2.152" stroke="#2C2E3E" stroke-linecap="round"/><path fill-rule="evenodd" clip-rule="evenodd" d="M400.804 231.751l7.857 16 5.287 1.714 7.142.143v3.715l-20.571 1-8.286-1.715-3.715-14.571 12.286-6.286z" fill="#fff"/><path clip-rule="evenodd" d="M325.277 197.266l57.206 1.028s2.056 0 3.769 4.11c1.713 4.111 23.294 46.93 23.294 46.93h25.691v4.796h-83.926l-26.616-51.724s-3.871-5.14.582-5.14z" stroke="#2C2E3E"/><path clip-rule="evenodd" d="M366.2 224.467c.982 3.285.005 6.479-2.185 7.134-2.189.655-4.76-1.477-5.744-4.761-.983-3.285-.005-6.479 2.185-7.134 2.189-.656 4.761 1.476 5.744 4.761z" stroke="#2C2E3E" stroke-linecap="round"/><path d="M356.302 254.035s-6.832 1.798-8.271 14.204c-1.438 12.406-12.226 116.149-12.226 116.149M380.574 286.218c-.539 0-4.675-.359-5.573 5.394-.9 5.753-19.239 94.394-19.239 94.394M457.963 144.653l-5.561 3.615M443.978 144.021l3.417 3.417M436.497 228.851s-3.021.299-1.33 4.103" stroke="#2C2E3E" stroke-linecap="round"/><path d="M401.582 278.146s1.772 3.022 8.063 7.75" stroke="#2C2E3E" stroke-width=".581" stroke-linecap="round"/><path fill-rule="evenodd" clip-rule="evenodd" d="M482.297 359.334l-2.433-26.779s-3.649-24.844 12.164-30.974c15.815-6.13 35.279-9.679 59.304-6.13 11.043 1.631 26.331 2.785 40.32 4.895 16.448 2.481 30.855 5.81 30.855 5.81l14.166-37.34 2.775-5.628 3.295-3.676 7.533-5.071 6.809-1.593 12.457-1.159 12.458.29 11.589 1.014 19.347 3.484 13.661 5.253 6.655 3.503 2.803 6.306-1.752 30.825-3.152 34.678 5.254 4.554 2.236 5.03.463 5.335-9.704 96.472-2.102 8.057-2.8 2.554-3.989 1.269-13.055.544-146.542.537-14.713-1.752-7.706-2.802-42.809-45.687-13.387-51.819z" fill="#fff"/><path clip-rule="evenodd" d="M728.984 451.692l10.054-100.61s1.34-8.177-8.043-13.509c-9.383-5.333-107.653-40.744-171.239-29.863-41.552 7.11-36.19 36.262-36.19 46.927 0 10.666 8.042 83.901 8.712 88.523.671 4.621 3.017 14.576 10.389 16.353 7.372 1.778 20.106 2.134 20.106 2.134l151.467-1.067s13.739 2.133 14.744-8.888z" stroke="#C4D0D6"/><path d="M730.995 337.573s5.361-58.66 5.026-63.992c-.335-5.333-1.674-9.244-12.733-13.51-11.059-4.266-33.846-9.599-59.314-8.177-25.467 1.422-26.473 16.354-29.154 21.331-2.68 4.977-12.733 34.84-12.733 34.84" stroke="#C4D0D6"/><path d="M694.804 323.708s14.41-40.884 15.08-46.216c.67-5.333 3.016-14.576-7.037-18.843-10.054-4.266-23.803-6.959-36.201-6.959M739.038 351.082s-29.154-21.686-101.872-31.641c-72.718-9.954-102.206 0-104.217 20.62-2.011 20.62 5.361 85.679 5.361 85.679l4.357 33.773M502.603 419.378l31.789 31.877M523.566 339.706h-19.437s-14.03-1.569-10.723 17.42l8.713 57.593" stroke="#C4D0D6"/><path d="M622.691 306.335s-52.293-11.838-91.896-11.606c-43.645.256-53.167 11.374-50.761 40.622 2.046 24.855 6.675 58.387 7.22 62.673 1.094 8.589 5.673 13.728 15.083 21.62" stroke="#C4D0D6"/><path d="M599.483 306.066s-62.14-8.523-90.567-3.676c-24.506 4.178-24.725 28.783-23.193 41.782.845 7.174 5.531 62.978 5.531 62.978M722.683 460.466l-3.938 14.16h-10.502l-5.251-2.786-2.626-11.142M708.242 474.626l-1.094-13.927M560.99 461.859l-3.282 15.32H546.55l-3.283-3.25-3.282-15.32M545.455 460.234l1.095 16.945M507.816 424.317l-.869 9.687h-8.533l-3.283-5.804-2.105-18.397M497.091 414.115l1.323 19.889M524.826 368.57c-.834-1.179-18.064-9.729-26.958-19.754" stroke="#C4D0D6"/><path fill-rule="evenodd" clip-rule="evenodd" d="M126.647 369.758l50.652-40.414H450.5l52.269 40.414" fill="#fff"/><path d="M126.647 369.758l50.652-40.414H450.5l52.269 40.414" stroke="#C4D0D6"/><path fill-rule="evenodd" clip-rule="evenodd" d="M449.423 399.07v29.423l46.88 54.288h6.467V369.758H126.648v109.791h4.849l45.803-50.517v-30.344" fill="#fff"/><path d="M449.423 399.07v29.423l46.88 54.288h6.467V369.758H126.648v109.791h4.849l45.803-50.517v-30.344M126.108 398.695H502.23M131.497 479.548V399.14M496.665 482.563v-83.195" stroke="#C4D0D6"/><path fill-rule="evenodd" clip-rule="evenodd" d="M108.786 93.106c0 22.011-17.874 39.855-39.922 39.855s-39.921-17.844-39.921-39.855c0-22.011 17.873-39.855 39.92-39.855 22.049 0 39.923 17.844 39.923 39.855z" fill="#FF2D23"/><path fill-rule="evenodd" clip-rule="evenodd" d="M97.878 93.106c0 15.997-12.99 28.965-29.014 28.965-16.023 0-29.013-12.968-29.013-28.965s12.99-28.965 29.013-28.965c16.024 0 29.014 12.968 29.014 28.965z" fill="#fff"/><path d="M68.523 93.715v-14M68.497 93.976l14.79 14.766" stroke="#2C2E3E" stroke-linecap="round"/><path d="M257.053 179.231l93.816-.374M375.213 177.952l19.515-.101" stroke="#C4D0D6" stroke-width=".871" stroke-linecap="round"/><path d="M241.843 298.974s5.698-.9 16.196-5.699M389.509 193.289s1.539 1.54 2.822 4.619" stroke="#2C2E3E" stroke-width=".581" stroke-linecap="round"/><path clip-rule="evenodd" d="M48.7 428.849c0 13.171-10.68 23.85-23.852 23.85C11.679 452.699 1 442.02 1 428.849 1 415.677 11.678 405 24.85 405s23.85 10.677 23.85 23.849z" stroke="#C4D0D6" stroke-width=".8"/><path clip-rule="evenodd" d="M23.631 414.401c.852 5.957 15.752 3.578 21.758 2.369-3.674-6.232-10.086-10.643-17.592-11.569-2.21 1.736-4.8 4.764-4.166 9.2zM19.515 411.809c.095-2.306-3.92-3.098-7.024-3.33a23.94 23.94 0 00-6.774 6.174c4.504.402 13.657.544 13.799-2.844zM19.82 420.194c-3.376-1.396-12.876-.484-17.187.027A23.774 23.774 0 001 428.849c0 .197.024.389.03.585 4.849-.132 15.18-.504 18.18-1.312 3.965-1.066 5.031-6.097.61-7.928zM8.385 437.881c2.287.152 3.964-.457 3.811-2.134-.152-1.678-3.505-1.83-3.505-1.83l-7.171-.124a23.54 23.54 0 001.248 4.048c1.675-.032 4.184-.056 5.617.04zM26.224 446.724c2.745.152 5.794-.305 5.64-2.286-.152-1.983-4.115-2.135-10.215-2.135-4.515 0-12.528.084-16.392.127a24.022 24.022 0 004.354 4.762c5.158-.213 14.638-.577 16.613-.468zM33.847 432.545c-4.726.152-8.348.001-8.538 3.049-.154 2.44 6.402 1.525 10.52 1.677 2.168.08 8.092-.03 11.348-.101a23.635 23.635 0 001.25-4.901c-3.694.052-11.106.164-14.58.276zM37.05 443.066c-.9 1.154-.042 3.165 2.791 4.32a23.947 23.947 0 004.643-5.012c-2.012-.152-6.605-.375-7.435.692zM35.22 425.379c0 2.286 3.354 1.829 5.336 1.677 1.35-.104 5.516-.137 8.045-.148a23.742 23.742 0 00-1.084-5.449c-2.967.056-7.615.158-8.333.26-1.067.153-3.964 1.373-3.964 3.66zM27.9 426.903c1.373.915 2.746 1.526 3.66.306.915-1.22-.153-3.66-2.134-4.118-1.161-.268-2.897 2.898-1.525 3.812zM17.075 433.612c-1.09.727-.914 3.05.306 3.507 1.22.457 2.44 1.067 3.049-.611.61-1.676-1.067-4.421-3.355-2.896z" stroke="#C4D0D6" stroke-width=".8"/></svg>