<svg width="35" height="13" fill="none" xmlns="http://www.w3.org/2000/svg"><path clip-rule="evenodd" d="M.5 10.201c0 1.2.973 2.172 2.172 2.172h29.537c1.2 0 2.172-.972 2.172-2.172V2.672c0-1.2-.972-2.172-2.172-2.172H2.672A2.172 2.172 0 00.5 2.672v7.529z" stroke="#8F95AC" stroke-linecap="round" stroke-linejoin="round"/><path clip-rule="evenodd" d="M4.265 12.372h20.85V8.463H4.265v3.91z" stroke="#8F95AC" stroke-linecap="round" stroke-linejoin="round"/><path fill-rule="evenodd" clip-rule="evenodd" d="M28.035 9.042a.724.724 0 110 1.448.724.724 0 010-1.448zM30.93 9.042a.724.724 0 110 1.448.724.724 0 010-1.448z" fill="#8F95AC"/><path d="M4.192 3.396H30.98M4.192 5.712H30.98" stroke="#8F95AC" stroke-linecap="round" stroke-linejoin="round"/></svg>