<svg width="35" height="16" fill="none" xmlns="http://www.w3.org/2000/svg"><path d="M24.76 13.765h-7.58a3.79 3.79 0 01-3.788-3.79v-3.79a3.79 3.79 0 013.789-3.79h7.58" stroke="#8F95AC" stroke-linecap="round" stroke-linejoin="round"/><path d="M24.76 12.501v1.264c0 .697.567 1.262 1.265 1.262h1.262V1.132h-1.262c-.698 0-1.264.565-1.264 1.263v2.526" stroke="#8F95AC" stroke-linecap="round" stroke-linejoin="round"/><path clip-rule="evenodd" d="M33.604 5.553v0c0 .698-.565 1.264-1.263 1.264h-5.053V4.29h5.053c.698 0 1.263.566 1.263 1.263zM33.604 10.607v0c0 .697-.565 1.263-1.263 1.263h-5.053V9.343h5.053c.698 0 1.263.566 1.263 1.264zM11.497 8.711V7.448c0-.698.565-1.263 1.263-1.263h.632v3.79h-.632a1.263 1.263 0 01-1.263-1.264z" stroke="#8F95AC" stroke-linecap="round" stroke-linejoin="round"/><path d="M11.497 8.08H4.29M4.29.5a3.79 3.79 0 100 7.579M4.29.5h14.786" stroke="#8F95AC" stroke-linecap="round" stroke-linejoin="round"/></svg>