<svg width="22" height="23" xmlns="http://www.w3.org/2000/svg"><path fill-rule="evenodd" clip-rule="evenodd" d="M11.5 14.24a3.54 3.54 0 01-3.523-3.523A3.54 3.54 0 0111.5 7.194a3.54 3.54 0 013.523 3.523 3.54 3.54 0 01-3.523 3.524zm0-9.023c-3.008 0-5.5 2.45-5.5 5.5s2.45 5.5 5.5 5.5 5.5-2.492 5.5-5.5-2.492-5.5-5.5-5.5z"  /><path fill-rule="evenodd" clip-rule="evenodd" d="M20.048 15.786c0 1.375-.487 2.484-1.285 3.238-.799.754-1.908 1.153-3.238 1.153h-9.05c-1.33 0-2.439-.4-3.237-1.153-.798-.799-1.198-1.907-1.198-3.283V6.65c0-1.331.4-2.44 1.198-3.238.754-.754 1.907-1.153 3.238-1.153h9.137c1.33 0 2.44.399 3.238 1.198.754.798 1.197 1.907 1.197 3.193v9.137zm.178-13.75C19.073.84 17.432.217 15.569.217H6.43C2.573.217 0 2.79 0 6.65v9.092c0 1.907.621 3.549 1.863 4.747 1.197 1.152 2.794 1.73 4.613 1.73h9.049c1.907 0 3.503-.622 4.657-1.73C21.379 19.334 22 17.693 22 15.786V6.649c0-1.863-.621-3.46-1.774-4.613z" /><path fill-rule="evenodd" clip-rule="evenodd" d="M17.5 3.217a1.5 1.5 0 110 3 1.5 1.5 0 010-3z" /></svg>
