<svg xmlns="http://www.w3.org/2000/svg" preserveAspectRatio="xMaxYMin meet" width="1319" height="792" fill="none"><mask id="a" maskUnits="userSpaceOnUse" x="0" y="0" width="1319" height="792"><path fill="#fff" d="M0 0h1319v792H0z"/></mask><g mask="url(#a)" fill-rule="evenodd" clip-rule="evenodd" fill="#F6F9FB"><path d="M706.322 312.024s13.15-3.532 18.713 2.522l5.563 6.053-.505 4.036 4.046.251s3.792-1.513 7.586-.757c3.792.757 12.896-.756 23.264 5.045 10.368 5.801 20.989 14.628 25.034 18.411 4.047 3.784 4.553 1.261 9.105 4.036 4.552 2.774 12.138 7.818 16.689 9.836 4.552 2.018 14.162 4.035 18.46 4.288 4.299.252 8.345-.505 11.127 1.513 2.782 2.017 2.023 7.314-3.034 11.097-5.059 3.784-20.483 12.358-26.806 15.385-6.322 3.026-18.712 6.305-22.253 11.349-3.54 5.045-9.103 13.115-9.608 19.672-.507 6.558-4.046 22.195-5.311 23.456-1.265 1.26-6.828 1.514-6.828 1.514L767.012 452s-7.586-2.269-9.609-4.792c-2.024-2.522-2.276-4.035-2.276-4.035s-12.644-4.54-15.426-6.558c-2.781-2.017-5.562-4.54-5.562-4.54l-11.38-6.052 1.011-1.262 2.276.757s5.564-4.54.254-7.567c-5.31-3.026-7.587-5.548-5.31-7.817 2.275-2.27 5.31-5.297 1.263-6.054-4.046-.756-4.805.757-4.805.757s.506 12.358-.758 13.367c-1.264 1.009-5.058 1.261-5.058 1.261s-11.126-2.27-13.655-5.8c-2.528-3.531-10.62-20.178-11.127-21.69-.505-1.513-3.034-7.82-3.034-7.82S678 372.554 678 370.537c0-2.019 4.299-29.509 4.551-30.77.253-1.261 2.024-.252 2.024-.252s3.54-16.646 6.827-20.177c3.288-3.531 14.92-7.314 14.92-7.314"/><path d="M732 305.361s8.353 6.835 16.454 9.873c8.101 3.038 20.504 4.304 23.541 7.595 3.038 3.292 22.528 15.443 24.807 17.215 2.278 1.772 12.91 8.354 15.442 9.621 2.531 1.265 7.593 8.1 17.466 9.113 9.872 1.013 13.668-1.772 13.668-1.772s3.291-6.076 5.823-8.86c2.531-2.786 6.075-7.595 10.884-8.354 4.81-.76 11.391-2.027 12.405 0 1.012 2.024 3.543 5.315 3.543 5.315s17.466-7.594 19.491-9.367c2.025-1.771-3.038-8.1-3.544-11.139-.506-3.037-2.531-24.556-3.037-27.087-.507-2.533-7.594-24.051-14.935-31.647-7.341-7.595-12.404-11.645-22.529-9.114-10.126 2.532-22.022 11.14-25.06 13.672-3.038 2.531-8.607 5.822-11.644 6.835-3.038 1.012-6.582 3.038-7.594 7.341-1.013 4.304-.507 12.913-5.569 14.684-5.063 1.772-18.986 4.304-23.542 4.809-4.556.507-5.568 2.027-5.568 2.027s-19.492-.76-23.289-2.027c-3.797-1.264-14.176-4.809-14.176-4.809L732 305.361z"/><path d="M842.708 252.671c-.488.642-9.874 5.628-13.671 7.931-3.798 2.302-13.419 9.465-16.965 11.256-3.543 1.791-7.088 5.116-7.847 7.163-.76 2.046-2.279 10.488-3.799 12.79-1.519 2.304-2.785 5.885-10.633 6.908-7.849 1.024-28.865-1.023-30.636-1.791-1.772-.768-13.167-2.046-16.71-1.79-3.545.255-8.103-.256-9.875-1.023-1.772-.768-11.899-3.326-14.685-4.349-2.785-1.025-20.255-5.373-20.255-5.373s-6.076-2.301-6.583-8.185c-.506-5.885 3.039-12.025 4.304-12.536 1.267-.511 6.076-1.535 10.128-1.279 4.051.255 7.596-2.559 7.596-2.559l6.583.256s3.797-2.814 6.582-2.302c2.786.511 9.621 2.814 12.913 3.07 3.292.255 18.23 6.395 20.002 7.163 1.771.767 8.608 1.791 11.141 1.535 2.531-.256 7.341 2.302 9.62 2.046 2.279-.255 8.609-7.163 8.609-7.163s3.291-8.185 4.557-9.977c1.266-1.791 12.406-5.884 14.685-6.14 2.279-.255 15.697-2.558 19.242-2.302 3.545.257 18.229 3.326 15.697 6.651"/><path d="M731.114 250.067c1.753 0 10.023-2.533 12.779-3.548 2.757-1.013 12.78-1.519 15.537-1.519 2.756 0 11.527.254 14.534.759 3.006.507 9.772 2.28 11.776 3.04 2.005.76 4.26 1.774 4.26 1.774s-5.012 9.373-6.264 11.4c-1.253 2.027-2.507 7.093-5.262 5.826-2.757-1.266-8.019-3.04-10.776-3.293-2.756-.253-7.517-.253-10.524-1.52-3.007-1.267-4.761-4.56-6.765-5.067-2.006-.506-5.263-1.013-7.017-1.266-1.754-.254-2.004-1.52-5.011-2.28-3.008-.76-4.762.76-7.267-.76-2.506-1.52 0-3.546 0-3.546m42.915 230.896c.611-3.649 2.102-11.663 2.402-12.56.301-.897.901-6.281.901-6.281s8.105 1.198 12.007.898c3.904-.299 14.41-1.495 15.31-1.495.901 0 21.315.896 23.115.896 1.802 0 35.724-15.849 38.425-17.344 2.703-1.495 36.024-27.811 38.125-29.606 2.102-1.794 6.905-10.466 6.304-17.344-.601-6.878-5.103-15.849-6.304-17.943-1.2-2.093-5.103-6.28-5.103-6.28s-.6-6.279-1.201-9.27c-.6-2.991-.9-9.271-.9-9.271s11.108-3.588 13.508-3.588c2.402 0 17.412-.898 24.316-1.495 6.905-.599 18.312-1.795 23.116-5.384 4.803-3.588 13.808-12.26 15.61-13.456 1.8-1.197 7.204-3.589 10.206-1.795 3.001 1.795 16.814 11.962 17.114 16.448.3 4.486-2.405 19.438-2.705 24.223-.3 4.785-3.001 19.139-3.902 20.634-.901 1.495-6.304 9.271-6.904 11.064-.602 1.795-3.303 11.364-3.303 15.551 0 4.187 2.701 14.952 5.103 17.644 2.402 2.691 5.104 8.074 6.905 9.27 1.801 1.197 2.101 3.888 2.101 3.888s-19.512 7.476-20.713 7.775c-1.201.299-19.812 8.672-23.716 8.971-3.902.3-21.013 0-23.715-.598-2.702-.598-15.31-3.888-16.51-4.785-1.201-.896-9.007-1.794-10.507-.299-1.501 1.496-29.42 22.429-30.921 23.027-1.5.598-3.301 1.794-6.304 1.495-3.002-.299-90.058-1.794-90.058-1.794s-2.102.598-1.802-1.196M698 554s3.587 5.594 3.826 11.19c.239 5.594.478 9.242.478 9.242s1.913 1.217.957 3.406c-.957 2.189.239 3.162.239 3.162l5.5-8.999-8.37-17.514L698 554zm9 .251L721.31 532l4.69 1.75L711.926 559 707 554.251z"/><path d="M719.405 561.526l2.191 1.474s4.381-3.44 6.086-4.178c1.704-.737 5.111-1.475 7.06-3.441 1.947-1.966 3.894-9.093 4.625-11.797.73-2.704 2.192-10.569 2.192-10.569s1.46-9.586 2.433-11.306c.974-1.72-2.677-2.702-4.869-5.898-2.191-3.195-6.086-5.407-2.191-3.195 3.896 2.211 7.303 5.899 8.521 5.161 1.217-.737-1.218-3.441.73-4.669 1.948-1.23 3.652.244 3.652.244l4.139-8.356 6.085-8.602s4.383-7.374 6.087-9.34c1.704-1.966 4.139-7.373 5.112-10.322.974-2.95 1.947-10.324 1.704-12.535-.243-2.211-.243-4.424-1.704-4.178-1.46.246-6.086 2.949-9.738 3.195-3.652.246-11.442 1.966-14.119 1.228-2.678-.737-5.842 1.23-8.034 1.966-2.191.738-6.086 2.951-5.112 3.933.974.984 1.461 1.229 2.19.737.731-.491 4.139-1.966 5.6-2.211 1.461-.246 5.6.245 5.6.245l.73 7.374s-11.199-1.721-14.12.738c-2.922 2.457-6.816 3.686-8.034 6.636-1.218 2.949-14.607 24.331-15.337 25.56-.73 1.229-22.884 35.638-22.884 35.638l5.357 2.704 7.79-12.289 2.677.491 10.469-14.991s3.894 2.703 6.086 4.177c2.191 1.475 6.085 5.408 8.276 6.636 2.191 1.229 6.087 1.967 6.087 2.95 0 .983-3.409 7.373-4.383 8.848-.973 1.474-6.329 10.814-6.329 10.814l-4.625 7.128zm-94.886-12.237c1.233.246 6.16 1.713 6.9 1.713.739 0 5.667.978 7.885.978s16.018-2.445 18.974-3.425c2.958-.978 3.943-1.468 4.189-4.16.247-2.691 6.407-16.147 6.407-16.147s11.336-5.384 13.06-6.362c1.725-.979 6.407-9.296 6.407-9.296l2.465-5.627s9.611-7.586 9.611-8.32-.247-3.67-.247-3.67 7.392-.49 8.378-2.201c.985-1.713.985-3.426 2.71-5.628s1.478-4.404 2.464-4.894c.986-.488 3.943-4.893 3.943-4.893s.986-6.116 2.465-7.585c1.478-1.468 6.16-1.957 7.392-1.712 1.232.244 1.478 1.468 1.478 2.691 0 1.224-2.956 1.468-3.696 2.936-.739 1.468-2.956 4.16-2.956 6.361 0 2.202.246 4.649.246 4.649s-10.103 14.191-10.596 15.169c-.493.979-12.075 18.351-14.539 22.51-2.464 4.159-11.335 14.435-12.322 15.658-.985 1.224-3.696.49-3.942 2.447s-3.203 3.67-4.928 4.649c-1.725.978-11.582 4.159-15.524 5.137-3.943.979-12.075 1.469-14.292 2.447-2.219.98-3.204 1.469-7.64 1.223-4.436-.243-11.088-1.223-11.088-1.223s-5.175-.978-5.668-2.201c-.493-1.224 2.464-1.224 2.464-1.224"/><path d="M699.306 492.141c.488-.742 8.306-18.549 9.283-20.28.978-1.731 2.444-1.978 3.177-3.216.733-1.235-.489-3.214-.489-3.214L695.396 459s-8.307 17.312-9.283 20.28c-.978 2.968-3.42 6.184-1.223 7.914 2.199 1.732 10.017 5.194 11.728 5.689a2.556 2.556 0 002.688-.742M791.242 452c-2.785-.885-5.352-1.799-5.238-2.139.244-.732 2.199-5.85 2.932-9.018.734-3.169 1.955-12.187 1.955-12.187L800.912 425s2.2 5.118 2.689 7.556c.489 2.437.977 4.631-1.466 6.581a254.023 254.023 0 01-5.378 4.143l-3.177 4.387s.079 1.653-.515 2.245c-.594.593-1.823 2.088-1.823 2.088m94.683-74.553l10.376-.447s9.486 8.354 9.634 17.155c.148 8.802.89 13.426-10.376 21.928-11.264 8.504-29.347 23.571-29.347 23.571s-37.647 19.243-39.278 19.095c0 0-4.001.447-6.224.148-2.224-.298-12.599-1.492-12.599-1.492s-.445-1.79.444-2.983 5.04-4.624 6.077-5.519c1.038-.896 4.299-2.686 5.336-3.283 1.038-.596 5.781-1.492 8.004-1.193 2.224.299 6.077 1.79 8.152 1.343 2.076-.448 5.039-.895 6.521-3.581 1.483-2.685 1.483-4.177.743-7.16-.743-2.984-2.669-3.132-3.855-4.923-1.186-1.79-2.075-3.43-.889-4.028 1.186-.596 3.409-.746 5.632-.149 2.224.597 9.782 2.387 12.302 2.835 2.52.447 4.15.298 5.188-2.088 1.037-2.388-.593-7.609 2.075-9.399 2.668-1.79 13.488-8.652 14.228-9.249.742-.596 1.187-4.177 1.632-6.265.444-2.089 3.26-20.884 3.556-22.078.297-1.193.445-2.089.445-2.089l2.223-.149z"/><path d="M792.957 452.605s1.794-2.218 2.391-3.252c.598-1.034 2.841-3.695 3.886-4.73 1.048-1.036 5.68-4.435 6.727-5.323 1.046-.886 1.196-.591 1.495-2.955.299-2.366-2.243-8.427-2.392-8.871-.15-.443-1.495-4.582-1.495-4.582s6.429-4.582 8.969-3.991c2.541.591 4.784 3.4 8.969 3.104 4.186-.296 7.175-.149 9.716-2.809 2.541-2.661 5.531-5.322 8.371-5.173 2.841.147 7.773-1.183 10.164-2.515 2.393-1.329 12.856-6.799 14.949-7.982 2.092-1.182 4.185-3.4 4.633-7.243.449-3.844-.298-13.896.898-16.261 1.195-2.366 2.541-3.844 4.783-3.992 2.242-.148 5.979.296 5.979.296s-1.495 13.896-1.943 15.966c-.449 2.069-2.242 12.712-2.84 13.303-.598.592-4.933 3.696-6.578 4.287-1.644.592-7.773 4.584-8.221 4.879-.449.296-1.344 2.808-1.344 5.025 0 2.219.149 5.766-1.495 5.47-1.646-.295-3.737.444-7.773-.738-4.036-1.183-12.258-2.957-13.902-.888-1.645 2.07-.748 6.21 0 6.801.747.591 4.782 4.435 4.185 7.095-.598 2.662-2.84 3.991-6.726 3.844-3.887-.148-11.959-.738-14.35-.296-2.393.443-8.222 4.879-9.866 6.061-1.644 1.184-4.485 5.322-5.083 5.322-.597 0-1.644 2.217-1.943 3.105-.299.887-3.438.739-3.438.739s-.747 1.774-1.195 1.774c-.449 0-5.233.886-8.671.739-3.437-.148-7.324.591-8.669-.148-1.346-.739-2.148-2.546-2.148-2.546l4.679-4.383 12.804 4.87 1.723-3.166-5.249-.836z"/><path d="M792.006 426.555c-.151-.443 2.702-6.07 4.203-7.551 1.502-1.481 4.504-5.33 6.455-6.218 1.953-.888 7.358-2.961 8.107-3.258.752-.296 12.311-4.886 13.963-6.071 1.651-1.184 12.761-8.143 15.464-10.216 2.702-2.074 12.761-10.661 13.812-11.55 1.051-.888 12.46-7.847 15.464-10.069 3.002-2.221 12.46-7.551 12.46-7.551L894.846 358s2.551 17.176 2.101 17.472c-.45.296-5.856 1.333-7.055 1.037-1.202-.296-8.107-1.037-9.609-1.333-1.502-.296-9.159.296-10.509 2.221-1.351 1.925-2.703 5.775-2.853 8.737-.151 2.96.45 11.845-.151 12.881-.6 1.037-3.602 4.739-4.503 4.887-.901.148-10.059 4.738-10.059 4.738s-4.504 2.812-5.705 2.961c-1.201.148-6.906 1.629-7.957 1.776-1.051.149-6.455 1.926-8.707 4.739-2.252 2.813-5.105 4.442-8.257 3.257-3.153-1.184-7.807-2.961-9.458-3.701-1.653-.741-6.006 2.369-6.756 2.517-.751.148-11.56 6.811-11.56 6.811l-1.802-.445zm-19.992-99.161c2.255 1.099 4.69 4.341 5.901 5.788 1.211 1.446 1.665 3.537 0 2.573-1.665-.966-6.053-2.251-6.658-3.859-.606-1.608-2.875-6.271.757-4.502M849 353.002s2.431-4.902 4.488-6.9c2.056-1.996 8.04-4.903 9.536-5.084 1.496-.182 7.667 1.09 7.667 1.09l1.309 2.904s-.188 3.996-.749 3.996c-.56 0-5.422.907-5.422.907l-2.431 3.632-3.552 1.09-10.097.363-.749-1.998zM613.816 674.586l53.369 39.364s27.506 41.552 68.699 56.335c41.193 14.783 165.886 24.82 186.575 15.183 17.541-8.171 21.17 3.373 61.585-7.71 47.536-13.035 67.796-22.256 78.906-39.996 7.7-12.287 26.32-4.336 33.72-17.347 7.39-13.011 66.33-14.704 66.33-14.704s-14.29-65.805-22.05-75.969c-7.76-10.164-14.03-11.062-18.8-11.959-4.78-.897-16.42-5.082-22.69-9.866-6.27-4.782-14.92-26.905-17.01-31.091-2.09-4.185-8.66-21.227-9.56-31.69-.89-10.463-6.26-20.029-13.43-32.286-7.16-12.258-24.18-25.113-36.12-32.886-11.94-7.773-15.82-21.525-19.1-24.514-3.28-2.991-6.569-3.29-8.658-2.691-2.09.598-28.657 11.061-34.029 13.453-5.375 2.391-14.627 2.093-22.389 2.391-7.761.299-18.507-4.185-25.969-5.679-7.462-1.496-9.552.896-9.552.896s-25.074 17.937-28.358 20.928c-3.284 2.989-6.268 1.793-9.552 1.793s-92.535-2.093-92.535-2.093l-3.285 8.969c-1.193 2.093-5.671 11.062-6.566 11.958-.896.897-6.269 4.784-7.463 5.979-1.194 1.196-6.268 9.567-6.866 11.361-.596 1.794-2.984 9.267-2.984 10.463 0 1.196.596 11.958 0 13.155-.598 1.195-5.374 9.266-7.164 11.06-1.792 1.795-10.15 7.774-12.239 8.671-2.089.897-8.657 0-9.85.597-1.195.599-1.195 2.99.597 3.888 1.791.896 10.446 4.783 10.446 4.783l12.239 9.566-4.179 4.484-12.836-9.566-3.581 2.092s-5.075 4.485-5.672 5.98c-.597 1.494-1.194 5.68-2.089 5.68-.896 0-3.881-3.289-4.776-2.093-.896 1.196-3.881 1.196-5.672-1.495s1.791-6.277 1.791-6.277L675.587 555.9l-6.567 2.69c-6.568 2.691-18.806 1.794-19.104 3.288-.299 1.496 3.283 1.197 4.776 1.496 1.492.298 2.089 3.886 2.686 5.38.597 1.495 14.03 1.196 14.03 1.196l7.76 10.464s2.09 2.69 3.882 4.484c1.791 1.794-.896 3.886-.896 5.681 0 1.792 5.075 1.494 6.566 1.792 1.494.3 5.971-2.092 8.06-1.792 2.09.299 15.523 11.957 17.911 15.246 2.388 3.288-.896 3.288-3.583 1.495-2.686-1.794-14.626-12.556-14.626-12.556l-2.985 2.69 7.761 9.567 26.268 18.536-4.478.896-35.521-19.133s-15.224-7.174-18.806-9.566c-3.582-2.393-8.358-9.568-10.447-11.66-2.09-2.093-8.657-10.463-8.657-10.463s-.597-4.485-1.791-4.485-2.089 2.392-4.477.897c-2.388-1.494.298-4.187 0-6.278-.299-2.093-20.299-10.166-20.299-10.166l14.925 14.351s.3 2.093 0 4.783c-.298 2.691 1.792 5.083 3.284 7.773 1.492 2.691-5.672 8.073-5.672 8.073s0 6.875 1.493 10.761c1.493 3.888 4.776 14.351 4.776 14.351s-2.388 1.794-5.969 1.794c-3.583 0-12.539-5.381-16.418-6.578-3.881-1.195-14.328-5.979-14.328-5.979s-3.284 3.587-4.18 5.083c-.896 1.494-3.88 6.576-5.373 9.865-1.493 3.288-4.179 3.288-2.388 6.577 1.791 3.289 18.508 20.629 18.508 20.629l2.388 5.679-2.687 7.175-2.388.897-3.88-6.278s-.598-6.278-1.195-8.371c-.597-2.092-18.507-15.845-18.507-15.845l-8.358 4.486-4.687.92 13.511 31.153 27.911 7.688z"/><path d="M857.485 74.717s-1.095 1.82-4.381-.729c-3.285-2.549-4.745-3.277-6.57-5.099-1.825-1.82-4.38-2.185-4.014-4.371.364-2.185-1.096-2.914.729-4.006 1.825-1.093 10.22-2.186 10.22-2.186s3.651 3.643 4.016 5.828c.364 2.186 0 10.563 0 10.563zm-16.791-21.49c-.73-1.456-1.095-4.37-.73-6.192.365-1.82 3.12-5.82 3.285-4.006.365 4.006 9.125 8.377 9.125 8.377l-4.38 1.822s-3.285 1.456-6.57 1.456c-3.286 0 0 0-.73-1.456zm-6.57-20.032s-.73-3.279-1.825-5.828c-1.095-2.55-6.571-17.483-6.936-19.669-.365-2.185-1.825-7.285-1.825-7.285s2.19-5.827 2.19-8.74c0-2.053-.361-6.272-.576-8.588-.089-.973-.154-1.61-.154-1.61s4.381.727 5.841 0c1.46-.73 2.92 1.092 2.92 1.092l1.095 3.642s-1.46 1.82-2.555 3.278c-1.095 1.456-.365 2.55-.365 4.735 0 2.185 4.015 3.278 6.935 5.463 2.921 2.186 2.921 6.192 3.651 9.106.729 2.914-1.826 7.65-3.287 10.563-1.459 2.913-5.109 13.84-5.109 13.84zm-32.852 37.151s-6.934-1.457-7.664-2.55c-.731-1.092-3.285-4.37-2.555-5.827.73-1.457 0-3.279 1.824-4.006 1.826-.73 5.111-.73 6.206 0 1.095.727 6.205 3.277 6.205 3.277.73 2.55 1.095 5.828 1.095 5.828l-5.111 3.278zm-23.359-18.575s-8.396 1.82-9.491 2.185c-1.095.364-5.475 2.186-6.205 1.093-.731-1.093-4.015-3.643-4.015-3.643l-5.11.365-4.381-1.093s.731-2.186-1.825-3.278c-2.555-1.093-3.65-4.006-3.65-4.006s2.19-1.458 5.84-1.458c3.651 0 8.03.728 10.586.728 2.555 0 5.475 0 8.76 1.457s5.84 2.55 9.491 3.643c3.65 1.093 0 4.007 0 4.007zM1377-30.144c-16.38-25.952-216.51-18.117-220.51-30.084-4.82-14.418-118.96 14.504-127.15 8.255-8.19-6.247-55.398 51.339-60.697 31.635-1.398-5.202-8.15-50.026-11.558-63.439-2.702-10.634-8.954-16.588-15.893-21.627-15.329-11.13-36.171-12.496-44.791-12.496-1.836 0-28.416.482-47.68-5.766-13.983-4.535-30.417-8.425-45.755-8.171-13.669.228-33.189 6.955-44.79 14.899-9.562 6.547-24.469 20.89-47.199 30.758-11.665 5.063-22.787 3.31-34.677 7.21-12.47 4.09-25.54 13.824-30.342 18.742-6.005 6.15-19.239 32.5-38.048 47.099-13.004 10.091-47.684-39.145-72.5-32.07-43.828 12.495-85.41 0-85.41 0h-64.5L321-13.13h-42.518V0L278 68.572l.482 4.805 10.114-.48 8.668 30.277-11.076 4.806 2.408 9.612 5.779-2.884 2.889-5.767 11.56 7.209-8.67 6.729-10.595-.962 1.444 7.209 10.115-.961 9.632-9.131-5.779 12.976-11.078.48-2.407 6.729-1.927 5.286 2.407 7.21 8.188.96 14.93 9.612 17.474 5.847 11.424 9.052 10.595 1.442 7.225 9.612 6.261-2.404 10.596 5.768 9.15.96 9.151-2.883 13.004.481 7.224 3.364 12.041-3.364 19.265 5.767h11.559s7.701 4.643 14.448 6.728c4.761 1.472 9.125.455 9.633.961.481.481 16.375 3.845 16.857 4.326 2.201 2.196 2.564 6.207 3.37 6.728 1.46.942 2.718-2.624 7.225 0 11.559 6.728 29.486 5.862 29.486 5.862 1.495.146 2.752.486 3.482 1.155 3.346 3.06 10.316 4.729 10.316 4.729l8.922-.556 10.037.556 7.807 1.67 7.807.555 8.085-.555 6.413 1.947s3.624 1.669 6.97 3.06c3.345 1.392 10.316 1.392 10.316 1.392l7.249.834 10.037.835 2.788-2.782-.558-12.242s-1.672-3.338-3.903-3.617c-2.23-.278-6.97-6.955-6.97-6.955s-4.74-12.798-5.297-13.911c-.559-1.112-10.038-20.866-10.038-20.866s3.625.278 3.346-1.669c-.278-1.948-2.231-6.677-2.231-6.677l.28-3.34 30.111 6.123 7.553 2.528-7.329 37.326-3.539-.505-.252 8.322s6.571 15.386 7.075 17.401c.507 2.019 3.033 11.603 6.32 12.611 3.285 1.009 9.098-.504 9.856-1.008.759-.505 3.033-2.27 3.033-2.27s2.022 1.765 4.802 3.531c2.78 1.764 1.77 1.764-.253 3.026-2.022 1.26-3.79 3.53-.758 3.783 3.033.252 5.56-2.775 5.56-2.775l1.77-2.775s3.033 1.767 5.307 3.28c2.274 1.513 5.054-2.775 5.054-2.775s1.264-1.765 3.287-4.539c2.02-2.775 2.02-3.53 2.78 0 .758 3.531 2.274 3.279 2.274 3.279l3.286-2.27h3.79l1.265-4.035c1.516 1.008 2.02 5.296 2.02 5.296l2.528 1.261 1.769 4.539s10.363-5.043 15.165-6.305c4.802-1.261 22.999-5.295 29.57-5.548 6.571-.252 18.702 1.008 24.262 2.774 5.56 1.766 10.363 2.27 14.407-.252 4.043-2.522 22.24-5.549 28.558-5.296 6.32.252 21.23 4.287 25.021 5.801 3.792 1.513 18.197 5.8 25.022 11.854 6.823 6.051 15.416 16.392 17.438 23.705 2.022 7.314 4.044 20.68 4.044 26.481 0 5.8-.505 19.672 7.329 25.22 7.835 5.549 32.097 8.07 38.922 6.557 6.823-1.513 18.703-8.071 21.987-13.871 3.286-5.8 9.098-7.819 16.681-7.313 7.583.504 21.735 4.539 25.525 10.087 3.79 5.549 2.28 21.185 1.77 27.742-.5 6.557-3.54 34.047-4.8 36.821-1.27 2.774-6.572 17.905-6.32 21.688 0 0 .506 11.602 9.6 21.689 9.1 10.088 12.89 16.646 14.66 20.933 1.77 4.288 5.31 12.105 12.39 17.402 7.07 5.296 22.24 18.157 26.28 23.454 4.04 5.297 16.18 20.681 16.93 24.463.76 3.782 3.8 16.393 4.3 21.436.51 5.045 4.04 21.186 5.31 24.716 1.26 3.531 13.9 28.751 17.44 32.534 3.54 3.782 13.65 7.818 16.93 8.321 3.29.505 10.11.758 12.89.758 2.78 0 7.08 3.783 10.11 6.557 3.03 2.774 6.57 10.592 9.35 12.358 1.13.714 3.04 2.354 5 4.318l26.07 70.547s88 9.031 140 9.031S1350.04 596.272 1355 572c4.82-23.549-20.82-103.699-17.93-121 2.52-15.085-2.91-56.328 0-70.863 2.41-12.014-9.85-33.276-5.38-46.137 9.41-27.038 5.22-50.041 0-66-4.35-13.288 59.32-275.939 45.31-298.144z"/></g><path clip-rule="evenodd" d="M917 647c152.98 0 277-124.017 277-277S1069.98 93 917 93c-152.983 0-277 124.017-277 277s124.017 277 277 277z" stroke="#1E2030"/><path fill-rule="evenodd" clip-rule="evenodd" d="M907.5 152c27.338 0 49.5-22.162 49.5-49.5S934.838 53 907.5 53 858 75.162 858 102.5s22.162 49.5 49.5 49.5z" fill="#fff"/><path fill-rule="evenodd" clip-rule="evenodd" d="M950 102c0 23.194-18.806 42-42.002 42C884.803 144 866 125.194 866 102c0-23.197 18.803-42 41.998-42C931.194 60 950 78.803 950 102z" fill="#EFF5F9"/><path fill-rule="evenodd" clip-rule="evenodd" d="M905.277 76.308c1.525 10.56 28.185 6.344 38.93 4.2A42.648 42.648 0 00912.73 60c-3.953 3.077-8.586 8.445-7.453 16.308zm-7.418-3.775c.159-3.664-6.584-4.923-11.794-5.292-4.433 2.552-8.29 5.883-11.375 9.812 7.562.64 22.932.865 23.169-4.52zm1.004 14.719c-5.635-2.229-21.493-.773-28.688.042-1.736 4.276-2.727 8.909-2.727 13.772 0 .315.04.621.049.934 8.095-.211 25.339-.804 30.347-2.094 6.619-1.703 8.399-9.732 1.019-12.654z" fill="#DAE7EF"/><path fill-rule="evenodd" clip-rule="evenodd" d="M877.684 116.451c3.409.214 5.909-.644 5.681-3.008-.227-2.364-5.226-2.579-5.226-2.579l-10.691-.174a31.956 31.956 0 001.861 5.705c2.497-.045 6.238-.079 8.375.056z" fill="#E3EDF3"/><path fill-rule="evenodd" clip-rule="evenodd" d="M907.471 131.721c4.482.225 9.46-.453 9.21-3.387-.251-2.936-6.72-3.162-16.679-3.162-7.37 0-20.452.125-26.761.188a37.182 37.182 0 007.11 7.054c8.419-.316 23.896-.855 27.12-.693zm15.51-23.453c-8.29.262-14.642.002-14.976 5.248-.269 4.199 11.23 2.625 18.451 2.886 3.803.138 14.194-.052 19.904-.174a40.066 40.066 0 002.192-8.435c-6.478.09-19.479.282-25.571.475zm5.867 18.524c-1.506 2.277-.069 6.242 4.68 8.518 2.979-2.836 5.601-6.162 7.782-9.882-3.372-.3-11.072-.739-12.462 1.364zm-2.02-30.902c0 4.04 5.809 3.233 9.24 2.964 2.337-.184 9.552-.242 13.932-.261a42.685 42.685 0 00-1.877-9.627c-5.137.098-13.186.28-14.431.459-1.847.27-6.864 2.426-6.864 6.466zm-13.67 2.879c2.21 1.65 4.422 2.752 5.894.55 1.475-2.2-.245-6.603-3.437-7.428-1.871-.484-4.668 5.227-2.457 6.878z" fill="#DAE7EF"/><path fill-rule="evenodd" clip-rule="evenodd" d="M893.314 109.967c-1.878 1.183-1.575 4.965.526 5.71 2.102.744 4.203 1.736 5.252-.995 1.052-2.729-1.837-7.199-5.778-4.715z" fill="#E3EDF3"/><path fill-rule="evenodd" clip-rule="evenodd" d="M887.109 65.793A41.825 41.825 0 00866 102.196C866 125.284 884.556 144 907.447 144c4.766 0 9.324-.851 13.587-2.346-37.804-25.435-36.905-59.807-33.925-75.86z" fill="#C1D1DB" fill-opacity=".275"/><path fill-rule="evenodd" clip-rule="evenodd" d="M729 620c27.062 0 49-21.938 49-49s-21.938-49-49-49-49 21.938-49 49 21.938 49 49 49z" fill="#fff"/><path clip-rule="evenodd" d="M917.5 580c115.7 0 209.5-93.796 209.5-209.5S1033.2 161 917.5 161C801.796 161 708 254.796 708 370.5S801.796 580 917.5 580z" stroke="#1E2030" stroke-dasharray="1 3"/><path fill-rule="evenodd" clip-rule="evenodd" d="M869.5 601c16.292 0 29.5-13.208 29.5-29.5S885.792 542 869.5 542 840 555.208 840 571.5s13.208 29.5 29.5 29.5z" fill="#fff"/><path fill-rule="evenodd" clip-rule="evenodd" d="M894 571c0 13.254-10.746 24-24.001 24C856.745 595 846 584.254 846 571c0-13.255 10.745-24 23.999-24C883.254 547 894 557.745 894 571z" fill="#EFF5F9"/><path fill-rule="evenodd" clip-rule="evenodd" d="M868.444 556.319c.871 6.035 16.105 3.625 22.246 2.4A24.371 24.371 0 00872.703 547c-2.259 1.758-4.907 4.826-4.259 9.319zm-4.239-2.157c.091-2.094-3.762-2.813-6.739-3.024a22.545 22.545 0 00-6.5 5.607c4.321.366 13.104.494 13.239-2.583zm.574 8.41c-3.22-1.273-12.282-.441-16.393.025a20.848 20.848 0 00-1.558 7.869c0 .18.023.355.028.534 4.625-.12 14.479-.46 17.341-1.197 3.782-.973 4.799-5.561.582-7.231z" fill="#DAE7EF"/><path fill-rule="evenodd" clip-rule="evenodd" d="M852.676 579.258c1.948.122 3.377-.369 3.247-1.719-.13-1.351-2.986-1.474-2.986-1.474l-6.109-.099a18.221 18.221 0 001.063 3.26c1.427-.026 3.564-.046 4.785.032z" fill="#E3EDF3"/><path fill-rule="evenodd" clip-rule="evenodd" d="M869.698 587.983c2.561.129 5.405-.258 5.262-1.935-.143-1.678-3.839-1.807-9.53-1.807-4.212 0-11.687.071-15.292.108a21.246 21.246 0 004.062 4.03c4.812-.18 13.655-.488 15.498-.396zm8.863-13.401c-4.738.149-8.367.001-8.558 2.998-.154 2.4 6.417 1.5 10.544 1.65 2.172.079 8.11-.03 11.373-.1a22.794 22.794 0 001.252-4.82c-3.701.051-11.13.162-14.611.272zm3.352 10.585c-.861 1.301-.039 3.566 2.674 4.867a25.77 25.77 0 004.447-5.647c-1.927-.171-6.326-.422-7.121.78zm-1.154-17.658c0 2.308 3.319 1.847 5.28 1.693 1.335-.105 5.458-.138 7.961-.149a24.344 24.344 0 00-1.073-5.501c-2.935.056-7.535.16-8.246.262-1.055.155-3.922 1.387-3.922 3.695zm-7.812 1.644c1.263.943 2.527 1.573 3.368.315.843-1.258-.14-3.773-1.964-4.245-1.069-.276-2.667 2.987-1.404 3.93z" fill="#DAE7EF"/><path fill-rule="evenodd" clip-rule="evenodd" d="M861.608 575.553c-1.073.676-.9 2.837.301 3.262 1.2.426 2.401.993 3.001-.568.601-1.559-1.05-4.114-3.302-2.694z" fill="#E3EDF3"/><path fill-rule="evenodd" clip-rule="evenodd" d="M858.062 550.31A23.901 23.901 0 00846 571.112C846 584.305 856.603 595 869.684 595c2.723 0 5.328-.486 7.764-1.341-21.602-14.534-21.088-34.175-19.386-43.349z" fill="#C1D1DB" fill-opacity=".275"/><path clip-rule="evenodd" d="M917.5 462c50.534 0 91.5-40.966 91.5-91.5S968.034 279 917.5 279 826 319.966 826 370.5s40.966 91.5 91.5 91.5z" stroke="#1E2030" stroke-dasharray="1 3"/><path fill-rule="evenodd" clip-rule="evenodd" d="M870 314c24.301 0 44-19.699 44-44s-19.699-44-44-44-44 19.699-44 44 19.699 44 44 44zm143 274c24.3 0 44-19.699 44-44s-19.7-44-44-44c-24.301 0-44 19.699-44 44s19.699 44 44 44zm100-178c30.38 0 55-24.624 55-55s-24.62-55-55-55-55 24.624-55 55 24.62 55 55 55z" fill="#fff"/><path fill-rule="evenodd" clip-rule="evenodd" d="M1160 355.5c0 26.234-21.27 47.5-47.5 47.5s-47.5-21.266-47.5-47.5c0-26.232 21.27-47.5 47.5-47.5s47.5 21.268 47.5 47.5z" fill="#EFF5F9"/><path fill-rule="evenodd" clip-rule="evenodd" d="M1081.88 351.739c7.21 4.081 11.44 2.039 10.94 6.375-.5 4.335 0 6.374 3.48 9.943 3.48 3.57 4.48 11.22 4.23 15.298-.25 4.081 2.73 11.731 7.21 10.456 4.47-1.276-.75-6.12 2.48-8.669 3.23-2.551 4.48-4.59 4.23-7.65-.25-3.06 1.74-1.53 3.23-3.06s.25-4.845 1.99-6.629c1.74-1.785 1.24-3.824 0-5.866-1.24-2.039-2.24-4.59-4.48-4.59-2.23 0-3.23-1.275-5.47-2.803-2.23-1.532-2.48-3.06-4.72-2.551-2.24.512-2.73-.254-4.72.512-1.99.764-2.99 2.039-3.98-.766-1-2.806-.75-3.315-2.98-3.569-2.24-.255-5.22-1.021-4.98-2.806.25-1.784-.49-3.314 2.24-3.314 2.74 0 5.47 2.802 7.46-.767 1.99-3.569 2.24-5.099 4.72-4.844 2.49.257 4.23-1.273 5.97-2.04 1.74-.766 2.98 0 4.97-.254 1.99-.255 1.49-2.294 1.49-5.866 0-3.569 2.24-3.314 1.49-6.883-.74-3.572-.74-6.375-4.72-4.845-3.98 1.53-8.45 2.548-10.69 2.548s-6.46-1.275-7.46-3.824c-.16-.419-.47-.835-.84-1.243-8.77 4.505-15.94 11.755-20.43 20.68.52 2.596 3.01 13.444 9.34 17.027zm74.4-9.941c-2.55 1.185-6.71 2.845-8.63 1.96-2.67-1.231-6.07-.74-8.01-1.97-1.94-1.228-2.67-4.429-4.13-3.444-1.45.985-1.69 4.429-2.91 4.183-1.21-.248-2.42-4.183-3.64-1.476-1.21 2.707-2.91 5.411-2.91 5.411s-2.67 1.722-2.18 3.938c.49 2.213 1.45 4.183 2.67 4.919 1.21.737 1.94.494 4.12 0 2.19-.491 2.91-1.23 4.61.983 1.7 2.215.97 3.937 2.91 4.677 1.94.737 2.19.491 2.19 3.443 0 2.953 1.69 4.183.97 5.411-.73 1.231-3.4 1.477-1.94 3.447 1.45 1.967 2.18 1.967 2.42 3.689.24 1.722-.73 4.429.73 5.165 1.46.74 2.67.74 4.12 1.231.88.297 3.06-1.54 4.88-3.16 4.37-7.048 6.94-15.363 6.94-24.302 0-4.925-.79-9.661-2.21-14.105zm-19.33-18.374c0 3.325.49 3.07-.5 4.86-.99 1.791-2.48 1.025-3.97 2.302-1.49 1.279-1.24 2.304-.75 4.605.5 2.304 2.73-.511 4.22-.511 1.49 0 1.99 0 3.98 1.535 1.98 1.535 2.23.255 4.22.255 1.98 0 2.23.769 4.46 2.304 1.57 1.078 4.98 1.032 6.87.631-3.39-8.455-9.08-15.67-16.26-20.849-.09.09-.21.18-.29.263-1.24 1.28-1.98 1.28-1.98 4.605z" fill="#DAE7EF"/><path fill-rule="evenodd" clip-rule="evenodd" d="M1089.87 314.032c-14.84 8.159-24.87 23.633-24.87 41.412 0 26.265 21.86 47.556 48.83 47.556 5.62 0 10.99-.968 16.01-2.669-44.54-28.935-43.48-68.037-39.97-86.299z" fill="#C1D1DB" fill-opacity=".27"/><path fill-rule="evenodd" clip-rule="evenodd" d="M769.474 569.58c0 21.939-18.049 39.725-40.311 39.725s-40.31-17.786-40.31-39.725 18.048-39.727 40.31-39.727c22.262 0 40.311 17.788 40.311 39.727z" fill="#EFF5F9"/><path fill-rule="evenodd" clip-rule="evenodd" d="M748.435 538.214c10.317-6.361 18.489-8.72 21.732-5.48 5.957 5.961-7.014 28.596-28.974 50.556-21.962 21.962-44.597 34.933-50.556 28.977-3.125-3.126-1.043-10.837 4.808-20.63l-2.608-8.335c-14.3 19.562-20.594 36.359-14.546 42.407 8.687 8.687 39.554-8.091 68.942-37.477 29.384-29.388 46.165-60.251 37.475-68.941-6.117-6.119-23.24.395-43.096 15.049l6.823 3.874z" fill="#DAE7EF"/><path fill-rule="evenodd" clip-rule="evenodd" d="M760.057 544.662l.069-.98c-7.457-8.461-18.377-13.829-30.584-13.829-22.47 0-40.689 18.105-40.689 40.44 0 12.363 5.601 23.416 14.397 30.833 9.461-5.378 21.099-14.551 32.58-26.202 10.381-10.532 18.791-21.216 24.227-30.262z" fill="#DAE7EF"/><path fill-rule="evenodd" clip-rule="evenodd" d="M716.486 550.616c6.969-6.954 13.038-13.97 17.935-20.528a42.787 42.787 0 00-4.393-.235c-22.737 0-41.175 18.072-41.175 40.36 0 .116.017.225.017.341l2.269 1.362c7.865-5.333 16.66-12.631 25.347-21.3z" fill="#EFF5F9"/><path fill-rule="evenodd" clip-rule="evenodd" d="M707.743 537.086c-11.369 6.593-19.057 19.095-19.057 33.46 0 21.223 16.752 38.425 37.418 38.425 4.303 0 8.418-.782 12.268-2.156-34.131-23.379-33.319-54.973-30.629-69.729z" fill="#C1D1DB" fill-opacity=".275"/><path fill-rule="evenodd" clip-rule="evenodd" d="M907 270c0 20.433-16.567 37-37.002 37C849.565 307 833 290.433 833 270c0-20.435 16.565-37 36.998-37C890.433 233 907 249.565 907 270z" fill="#EFF5F9"/><path fill-rule="evenodd" clip-rule="evenodd" d="M864.974 293.853c-6.358 1.513-9.916 5.257-11.888 8.607a36.001 36.001 0 009.248 3.483c1.891-3.027 5.326-6.511 11.337-7.273 11.069-1.405 13.046-1.003 17.198-6.824 2.789-3.916 7.373-5.009 11.878-4.761 1.406-2.692 2.472-5.592 3.196-8.628-9.235.115-14.219 6.044-17.843 9.376-4.151 3.814-10.475 3.008-23.126 6.02zm25.674-24.034c-10.815 7.902-21.241 6.322-35.205 11.259-7.776 2.75-12.437 7.03-15.043 10.283a36.805 36.805 0 004.006 5.068c3.189-4.517 9.739-11.719 20.282-13.968 15.733-3.36 22.42-.198 32.843-7.902a130.164 130.164 0 009.469-7.702 36.5 36.5 0 00-2.482-9.543c-3.72 3.926-8.651 8.693-13.87 12.505zm.37-29.419c-3.893 2.529-6.625 6.319-8.814 11.306-2.964 6.771-7.514 5.177-17.009 6.771-9.493 1.593-10.087 7.166-16.811 12.94-4.585 3.937-10.82 4.818-14.327 4.981.449 2.924 1.205 5.746 2.296 8.402 3.79-3.014 9.89-6.833 18.557-9.202 16.021-4.381 30.065-12.144 35.405-18.715 2.402-2.954 5.521-6.51 8.228-9.53a36.862 36.862 0 00-7.525-6.953zm-26.172 4.261c-3.708 4.701-8.392 6.074-17.761 6.66-3.362.213-6.464 1.234-9.071 2.453A36.163 36.163 0 00834.057 270c3.562-4.509 8.825-9.701 15.955-12.995 14.834-6.857 19.129-5.486 25.178-11.95 2.667-2.851 4.842-6.272 6.439-9.207a35.884 35.884 0 00-9.668-1.791c-2.038 3.687-4.942 7.85-7.115 10.604z" fill="#DAE7EF"/><path fill-rule="evenodd" clip-rule="evenodd" d="M851.596 238.103A36.847 36.847 0 00833 270.173C833 290.512 849.347 307 869.513 307c4.199 0 8.214-.749 11.97-2.067-33.304-22.407-32.512-52.687-29.887-66.83z" fill="#C1D1DB" fill-opacity=".275"/><path fill-rule="evenodd" clip-rule="evenodd" d="M842.514 245.686c3.193-.065 7.074-.499 9.883-1.687 5.182-2.197 9.857-5.471 12.317-9.942-8.837 1.275-16.63 5.508-22.2 11.629z" fill="#DAE7EF"/><path fill-rule="evenodd" clip-rule="evenodd" d="M1049 543.999c0 20.435-16.57 37.001-37 37.001-20.434 0-37-16.566-37-37.001 0-20.433 16.566-36.999 37-36.999 20.43 0 37 16.566 37 36.999z" fill="#EFF5F9"/><path fill-rule="evenodd" clip-rule="evenodd" d="M991.323 513.353c4.802 2.813 13.947 6.312 29.077 6.693 5.89.15 11.5-1.021 16.63-2.881-6.61-6.29-15.45-10.165-25.19-10.165-7.59 0-14.641 2.345-20.517 6.353zm-5.761 4.529c-4.728 5.005-8.098 11.317-9.474 18.367 31.152 16.741 62.112 10.256 72.912 7.122-.01-3.196-.45-6.281-1.21-9.238-36.76 7.455-55.709-8.798-62.228-16.251zm-2.944 48.582a36.77 36.77 0 007.152 6.653c20.05-12.297 36.42-4.118 42.85.265 5.88-4.069 10.47-9.776 13.12-16.449-31.13-6.644-54.645 4.555-63.122 9.531zm4.189-17.291c1.558-.82 4.283-1.64 5.645.819 1.362 2.457 1.559 4.503-.388 5.527-1.948 1.024-5.452.204-6.037-1.433-.583-1.637.78-4.913.78-4.913z" fill="#DAE7EF"/><path fill-rule="evenodd" clip-rule="evenodd" d="M1028.72 527.131c-.67.9-.57 2.896.96 4.635 1.53 1.737 4.4 1.932 5.55-.193 1.15-2.124.96-4.637-.96-5.6-1.91-.966-4.4-.388-5.55 1.158z" fill="#DAE7EF"/><path fill-rule="evenodd" clip-rule="evenodd" d="M1026.37 562.344c-.38.514-.32 1.655.55 2.648.88.993 2.52 1.104 3.17-.11.66-1.214.55-2.649-.54-3.2-1.1-.552-2.52-.222-3.18.662z" fill="#EFF5F9"/><path fill-rule="evenodd" clip-rule="evenodd" d="M994.454 512.441c-10.957 6.188-18.366 17.923-18.366 31.406 0 19.918 16.144 36.065 36.062 36.065 4.15 0 8.11-.734 11.82-2.025-32.891-21.943-32.109-51.596-29.516-65.446z" fill="#C1D1DB" fill-opacity=".275"/><path fill-rule="evenodd" clip-rule="evenodd" d="M999.5 430c14.08 0 25.5-11.417 25.5-25.5s-11.42-25.5-25.5-25.5c-14.083 0-25.5 11.417-25.5 25.5s11.417 25.5 25.5 25.5z" fill="#fff"/><path fill-rule="evenodd" clip-rule="evenodd" d="M1020 403.999c0 11.599-9.4 21.001-21 21.001-11.598 0-21-9.402-21-21.001 0-11.597 9.402-20.999 21-20.999 11.6 0 21 9.402 21 20.999z" fill="#EFF5F9"/><path fill-rule="evenodd" clip-rule="evenodd" d="M987.45 386.576c2.758 1.583 8.01 3.552 16.7 3.767 3.38.084 6.6-.575 9.55-1.622-3.8-3.54-8.87-5.721-14.465-5.721-4.36 0-8.41 1.32-11.785 3.576zm-3.079 2.724a21.332 21.332 0 00-5.321 10.501c17.493 9.572 34.89 5.864 40.95 4.073 0-1.828-.25-3.591-.68-5.282-20.643 4.262-31.288-5.031-34.949-9.292zm-2.171 27.574a20.86 20.86 0 004.045 3.775c11.34-6.979 20.595-2.337 24.235.151a20.534 20.534 0 007.42-9.336c-17.6-3.771-30.905 2.585-35.7 5.41zm2.61-10.322c.859-.452 2.361-.904 3.112.452.751 1.354.86 2.482-.214 3.047s-3.005.113-3.328-.79c-.321-.903.43-2.709.43-2.709z" fill="#DAE7EF"/><path fill-rule="evenodd" clip-rule="evenodd" d="M1008.67 394.399c-.37.496-.32 1.597.53 2.556.84.957 2.42 1.065 3.06-.107.63-1.171.53-2.556-.53-3.087-1.06-.533-2.43-.214-3.06.638z" fill="#DAE7EF"/><path fill-rule="evenodd" clip-rule="evenodd" d="M1007.51 414.95c-.19.248-.16.798.26 1.277.43.479 1.22.533 1.53-.053.32-.585.27-1.278-.26-1.544s-1.21-.107-1.53.32z" fill="#EFF5F9"/><path fill-rule="evenodd" clip-rule="evenodd" d="M989.521 386.15c-6.247 3.467-10.471 10.041-10.471 17.595 0 11.159 9.205 20.205 20.56 20.205 2.36 0 4.63-.411 6.74-1.134-18.753-12.294-18.307-28.907-16.829-36.666z" fill="#C1D1DB" fill-opacity=".275"/><rect x="943" y="81" width="129" height="35" rx="17.5" fill="#8F95AC"/><path d="M961.052 105.8h-1.204l1.456-3.458-3.01-6.398h1.274l2.156 4.648h.35l1.96-4.648h1.246l-4.228 9.856zm4.448-2.8v-1.12h.238c.495 0 .85-.229 1.064-.686.215-.467.322-1.307.322-2.52v-2.73h5.404V103h-1.204v-6.02h-3.094v1.722c0 1.596-.196 2.711-.588 3.346-.382.635-1.017.952-1.904.952h-.238zm10.702 0h-1.456v-1.624h1.456V103zm12.994-2.842h1.33c-.215.924-.663 1.661-1.344 2.212-.682.541-1.554.812-2.618.812-1.456 0-2.59-.481-3.402-1.442-.812-.961-1.218-2.207-1.218-3.738 0-1.53.41-2.777 1.232-3.738.821-.961 1.955-1.442 3.402-1.442 1.008 0 1.848.252 2.52.756.672.495 1.11 1.176 1.316 2.044h-1.33c-.392-1.101-1.228-1.652-2.506-1.652-1.102 0-1.937.387-2.506 1.162-.57.775-.854 1.731-.854 2.87 0 1.148.28 2.109.84 2.884.569.765 1.404 1.148 2.506 1.148.69 0 1.26-.163 1.708-.49.448-.336.756-.798.924-1.386zm4.855 2.842h-1.68v-7.056h1.162v5.46h.308l3.094-5.46h1.736V103h-1.162v-5.46h-.308l-3.15 5.46zm11.789 0l-1.57-3.108h-2.11V103h-1.19v-7.056h1.19v2.912h2.14l1.47-2.912h1.25l-1.72 3.402 1.82 3.654h-1.28zm8.88-3.948v.406h-5.38c.02.849.22 1.512.6 1.988.39.467.94.7 1.66.7.97 0 1.56-.364 1.79-1.092h1.2a2.433 2.433 0 01-.96 1.54c-.52.392-1.19.588-2.03.588-1.08 0-1.92-.35-2.52-1.05-.61-.7-.91-1.61-.91-2.73 0-1.101.3-1.983.91-2.646.6-.663 1.43-.994 2.49-.994 1 0 1.77.317 2.31.952.54.625.82 1.405.84 2.338zm-3.18-2.254c-.61 0-1.09.159-1.46.476a1.99 1.99 0 00-.67 1.19h4.08a1.743 1.743 0 00-.58-1.19c-.34-.317-.8-.476-1.37-.476zm6.71 6.202h-1.68v-7.056h1.16v5.46h.31l3.09-5.46h1.74V103h-1.16v-5.46h-.31l-3.15 5.46zm2.66-10.136h.97c-.02.653-.22 1.157-.61 1.512-.38.355-.91.532-1.58.532-.66 0-1.18-.177-1.57-.532-.38-.355-.58-.859-.6-1.512h.97c.02.793.42 1.19 1.2 1.19.77 0 1.17-.397 1.22-1.19zm7.65 3.934c-.74 0-1.3.257-1.67.77-.36.513-.54 1.148-.54 1.904s.18 1.391.54 1.904c.37.513.93.77 1.67.77.69 0 1.22-.243 1.59-.728.39-.495.58-1.143.58-1.946 0-.803-.19-1.447-.58-1.932-.37-.495-.9-.742-1.59-.742zm-3.39-.854h1.15v.756h.31c.5-.625 1.23-.938 2.19-.938s1.71.35 2.26 1.05c.56.7.84 1.587.84 2.66 0 1.092-.28 1.983-.84 2.674-.55.691-1.3 1.036-2.26 1.036-.97 0-1.69-.313-2.15-.938h-.31v3.556h-1.19v-9.856zm9.1.868c.63-.7 1.48-1.05 2.55-1.05 1.07 0 1.92.35 2.53 1.05.63.7.94 1.587.94 2.66 0 1.073-.31 1.96-.94 2.66-.61.7-1.46 1.05-2.53 1.05-1.07 0-1.92-.35-2.55-1.05-.61-.7-.92-1.587-.92-2.66 0-1.073.31-1.96.92-2.66zm.86 4.564c.39.513.95.77 1.69.77s1.3-.257 1.69-.77c.4-.523.59-1.157.59-1.904 0-.747-.19-1.377-.59-1.89-.39-.523-.95-.784-1.69-.784s-1.3.261-1.69.784c-.4.513-.59 1.143-.59 1.89 0 .747.19 1.381.59 1.904zm11.79-.504h1.19c-.14.709-.47 1.274-.99 1.694-.51.411-1.17.616-1.97.616-1.07 0-1.91-.345-2.52-1.036-.61-.7-.91-1.591-.91-2.674 0-1.092.3-1.983.91-2.674.6-.69 1.44-1.036 2.52-1.036.81 0 1.47.205 1.97.616.51.401.83.938.95 1.61h-1.19c-.25-.793-.83-1.19-1.73-1.19-.76 0-1.32.252-1.7.756-.36.495-.54 1.125-.54 1.89 0 .775.18 1.419.56 1.932.37.513.93.77 1.68.77.99 0 1.58-.425 1.77-1.274zm7.46 2.128v-.742h-.31c-.48.616-1.21.924-2.19.924-.78 0-1.39-.224-1.85-.672a2.183 2.183 0 01-.69-1.624c0-.644.23-1.195.67-1.652.45-.457 1.13-.686 2.03-.686h2.3v-.28c0-.448-.14-.803-.42-1.064-.28-.27-.71-.406-1.3-.406-1.03 0-1.57.34-1.64 1.022h-1.19c.05-.644.32-1.148.83-1.512.51-.364 1.17-.546 1.97-.546.91 0 1.61.21 2.13.63.52.42.78 1.022.78 1.806V103h-1.12zm-2.21-.854c.59 0 1.1-.191 1.53-.574.43-.392.64-.868.64-1.428V99.5h-2.11c-1.13 0-1.7.448-1.7 1.344 0 .401.14.719.42.952.29.233.7.35 1.22.35z" fill="#fff"/><rect x="1141" y="340" width="117" height="35" rx="17.5" fill="#8F95AC"/><path d="M1155.27 362v-9.996h1.26v4.27h3.03l2-4.27h1.33l-2.24 4.858 2.37 5.138h-1.33l-2.13-4.578h-3.03V362h-1.26zm8.55 0v-1.12h.24c.5 0 .85-.229 1.07-.686.21-.467.32-1.307.32-2.52v-2.73h5.4V362h-1.2v-6.02h-3.1v1.722c0 1.596-.19 2.711-.58 3.346-.39.635-1.02.952-1.91.952h-.24zm9.81-6.188c.63-.7 1.47-1.05 2.55-1.05 1.07 0 1.92.35 2.53 1.05.63.7.94 1.587.94 2.66 0 1.073-.31 1.96-.94 2.66-.61.7-1.46 1.05-2.53 1.05-1.08 0-1.92-.35-2.55-1.05-.62-.7-.92-1.587-.92-2.66 0-1.073.3-1.96.92-2.66zm.85 4.564c.4.513.96.77 1.7.77s1.3-.257 1.69-.77c.39-.523.59-1.157.59-1.904 0-.747-.2-1.377-.59-1.89-.39-.523-.95-.784-1.69-.784s-1.3.261-1.7.784c-.39.513-.58 1.143-.58 1.89 0 .747.19 1.381.58 1.904zm6.62-5.432h1.19v1.988c0 .224.02.401.04.532.03.121.1.261.2.42.1.159.28.275.53.35.26.075.6.112 1.01.112.62 0 1.2-.061 1.76-.182v-3.22h1.21V362h-1.21v-2.786c-.62.131-1.29.196-2.01.196-.5 0-.92-.047-1.28-.14-.34-.103-.61-.219-.79-.35-.18-.14-.32-.327-.42-.56a2.334 2.334 0 01-.2-.63c-.02-.187-.03-.42-.03-.7v-2.086zm12.99 7.056l-1.57-3.108h-2.11V362h-1.19v-7.056h1.19v2.912h2.14l1.47-2.912h1.25l-1.73 3.402 1.82 3.654h-1.27zm3.25-6.188c.62-.7 1.47-1.05 2.55-1.05 1.07 0 1.91.35 2.53 1.05.62.7.94 1.587.94 2.66 0 1.073-.32 1.96-.94 2.66-.62.7-1.46 1.05-2.53 1.05-1.08 0-1.93-.35-2.55-1.05-.62-.7-.93-1.587-.93-2.66 0-1.073.31-1.96.93-2.66zm.85 4.564c.39.513.96.77 1.7.77.73 0 1.3-.257 1.69-.77.39-.523.59-1.157.59-1.904 0-.747-.2-1.377-.59-1.89-.39-.523-.96-.784-1.69-.784-.74 0-1.31.261-1.7.784-.39.513-.59 1.143-.59 1.89 0 .747.2 1.381.59 1.904zm11.99-2.268v.308c.35.084.63.271.83.56.22.289.32.653.32 1.092 0 1.288-.83 1.932-2.49 1.932h-3.63v-7.056h3.5c.71 0 1.26.159 1.64.476.39.308.59.742.59 1.302 0 .327-.07.611-.22.854-.14.243-.32.42-.54.532zm-3.79 2.884h2.38c.92 0 1.37-.35 1.37-1.05 0-.709-.45-1.064-1.37-1.064h-2.38v2.114zm0-5.04v1.918h2.21c.4 0 .69-.089.87-.266.19-.177.28-.406.28-.686 0-.644-.38-.966-1.15-.966h-2.21zm16.92 6.048h-1.19v-6.02h-3.85V362h-1.19v-7.056h6.23V362zm8.42-3.948v.406h-5.38c.02.849.22 1.512.61 1.988.38.467.93.7 1.65.7.97 0 1.57-.364 1.79-1.092h1.2a2.433 2.433 0 01-.96 1.54c-.51.392-1.19.588-2.03.588-1.07 0-1.91-.35-2.52-1.05-.61-.7-.91-1.61-.91-2.73 0-1.101.3-1.983.91-2.646.61-.663 1.44-.994 2.49-.994 1 0 1.77.317 2.31.952.54.625.82 1.405.84 2.338zm-3.18-2.254c-.6 0-1.09.159-1.45.476-.37.308-.59.705-.68 1.19h4.08a1.742 1.742 0 00-.58-1.19c-.34-.317-.8-.476-1.37-.476zm8.42 0c-.74 0-1.29.257-1.66.77-.37.513-.55 1.148-.55 1.904s.18 1.391.55 1.904c.37.513.92.77 1.66.77.69 0 1.22-.243 1.6-.728.38-.495.57-1.143.57-1.946 0-.803-.19-1.447-.57-1.932-.38-.495-.91-.742-1.6-.742zm-3.39-.854h1.15v.756h.31c.5-.625 1.24-.938 2.2-.938.95 0 1.7.35 2.25 1.05.56.7.84 1.587.84 2.66 0 1.092-.28 1.983-.84 2.674-.55.691-1.3 1.036-2.25 1.036-.97 0-1.69-.313-2.16-.938h-.31v3.556h-1.19v-9.856zm9.63 7.056h-1.45v-1.624h1.45V362z" fill="#fff"/><rect x="550" y="547" width="132" height="35" rx="17.5" fill="#8F95AC"/><path d="M565.182 567.754h.266c.467 0 .826-.121 1.078-.364.252-.243.448-.733.588-1.47.14-.747.21-1.829.21-3.248v-3.668h6.566V569h-1.26v-8.848h-4.116v2.758c0 1.624-.112 2.884-.336 3.78-.215.887-.537 1.493-.966 1.82-.42.327-1.003.49-1.75.49h-.28v-1.246zm17.242-2.702v.406h-5.376c.019.849.22 1.512.602 1.988.383.467.934.7 1.652.7.971 0 1.568-.364 1.792-1.092h1.204a2.433 2.433 0 01-.966 1.54c-.513.392-1.19.588-2.03.588-1.073 0-1.913-.35-2.52-1.05-.606-.7-.91-1.61-.91-2.73 0-1.101.304-1.983.91-2.646.607-.663 1.438-.994 2.492-.994.999 0 1.769.317 2.31.952.542.625.822 1.405.84 2.338zm-3.178-2.254c-.606 0-1.092.159-1.456.476a1.944 1.944 0 00-.672 1.19h4.074a1.74 1.74 0 00-.574-1.19c-.345-.317-.802-.476-1.372-.476zM590.563 569h-1.19v-3.108h-3.906V569h-1.19v-7.056h1.19v2.912h3.906v-2.912h1.19V569zm3.98 0h-1.68v-7.056h1.162v5.46h.308l3.094-5.46h1.736V569h-1.162v-5.46h-.308l-3.15 5.46zm13.205 0h-1.19v-3.108h-3.906V569h-1.19v-7.056h1.19v2.912h3.906v-2.912h1.19V569zm7.074-2.128h1.19c-.14.709-.471 1.274-.994 1.694-.513.411-1.171.616-1.974.616-1.064 0-1.904-.345-2.52-1.036-.606-.7-.91-1.591-.91-2.674 0-1.092.304-1.983.91-2.674.607-.691 1.447-1.036 2.52-1.036.812 0 1.47.205 1.974.616.514.401.831.938.952 1.61h-1.19c-.252-.793-.83-1.19-1.736-1.19-.756 0-1.32.252-1.694.756-.364.495-.546 1.125-.546 1.89 0 .775.187 1.419.56 1.932.374.513.934.77 1.68.77.99 0 1.582-.425 1.778-1.274zm7.837 2.128l-1.568-3.108h-2.114V569h-1.19v-7.056h1.19v2.912h2.142l1.47-2.912h1.246l-1.722 3.402 1.82 3.654h-1.274zm4.642 0h-1.68v-7.056h1.162v5.46h.308l3.094-5.46h1.736V569h-1.162v-5.46h-.308l-3.15 5.46zm8.599 0h-1.68v-7.056h1.162v5.46h.308l3.094-5.46h1.736V569h-1.162v-5.46h-.308L635.9 569zm2.66-10.136h.966c-.018.653-.219 1.157-.602 1.512-.382.355-.91.532-1.582.532-.662 0-1.185-.177-1.568-.532-.382-.355-.583-.859-.602-1.512h.966c.019.793.42 1.19 1.204 1.19.766 0 1.172-.397 1.218-1.19zM652.946 569h-1.19v-6.02h-3.85V569h-1.19v-7.056h6.23V569zm5.69-6.202c-.738 0-1.293.257-1.666.77-.364.513-.546 1.148-.546 1.904s.182 1.391.546 1.904c.373.513.928.77 1.666.77.69 0 1.222-.243 1.596-.728.382-.495.574-1.143.574-1.946 0-.803-.192-1.447-.574-1.932-.374-.495-.906-.742-1.596-.742zm-3.388-.854h1.148v.756h.308c.504-.625 1.236-.938 2.198-.938.952 0 1.703.35 2.254 1.05.56.7.84 1.587.84 2.66 0 1.092-.28 1.983-.84 2.674-.551.691-1.302 1.036-2.254 1.036-.971 0-1.69-.313-2.156-.938h-.308v3.556h-1.19v-9.856zm9.63 7.056h-1.456v-1.624h1.456V569z" fill="#fff"/><mask id="b" maskUnits="userSpaceOnUse" x="880" y="350" width="75" height="40"><rect x="880" y="350" width="75" height="40" rx="5" fill="#fff"/></mask><g mask="url(#b)"><path fill="#fff" d="M885 351h65v36h-65z"/><path fill-rule="evenodd" clip-rule="evenodd" d="M919.487 382.747v-.744c0-.045-.008-.06-.024-.076a.152.152 0 00-.07-.038.436.436 0 00-.14-.014h-3.377a.448.448 0 00-.141.014.147.147 0 00-.07.038c-.015.016-.024.031-.024.076v.744c0 .044.009.06.024.076.016.017.04.03.07.039.03.008.06.013.141.013h3.377a.48.48 0 00.14-.013.162.162 0 00.07-.039c.016-.016.024-.032.024-.076zm7.954.527c-.005.01-.005.022-.005.047v.732c0 .026 0 .038.005.047a.041.041 0 00.019.02c.011.006.023.006.048.006h.569v1.428c0 .024 0 .037.005.047a.041.041 0 00.02.019c.009.005.022.005.047.005h1.137c.026 0 .038 0 .048-.005a.046.046 0 00.02-.019c.005-.01.005-.023.005-.047v-3.608c0-.025 0-.037-.005-.046a.043.043 0 00-.02-.02c-.01-.005-.022-.005-.048-.005h-1.137c-.025 0-.038 0-.047.005a.045.045 0 00-.014.01l-.004.006-.002.004c-.005.009-.005.021-.005.046v1.304h-.569c-.025 0-.037 0-.048.005a.05.05 0 00-.019.019zm8.713 1.476v-2h2.491c.025 0 .039 0 .048-.005a.046.046 0 00.02-.019c.005-.01.005-.022.005-.047v-.733c0-.025 0-.037-.005-.046a.039.039 0 00-.02-.02c-.009-.005-.023-.005-.048-.005h-3.572c-.026 0-.039 0-.048.005a.043.043 0 00-.02.02c-.005.009-.005.021-.005.046v3.608c0 .024 0 .037.005.047a.046.046 0 00.02.019c.009.005.022.005.048.005h3.572c.025 0 .039 0 .048-.005a.041.041 0 00.02-.019c.005-.01.005-.023.005-.048v-.732c0-.024 0-.037-.005-.047a.041.041 0 00-.02-.019c-.009-.005-.023-.005-.048-.005h-2.491zm-.38-3.976c-.005.01-.005.022-.005.047v.733c0 .025 0 .037.005.047a.052.052 0 00.02.019c.01.005.022.005.048.005h.752c.025 0 .038 0 .048-.005a.046.046 0 00.02-.019c.004-.01.004-.022.004-.047v-.733c0-.025 0-.037-.004-.047a.06.06 0 00-.012-.015.022.022 0 01-.008-.005c-.01-.004-.023-.004-.048-.004h-.752c-.026 0-.038 0-.048.004a.064.064 0 00-.02.02zm1.277.047c0-.025 0-.037.005-.047a.06.06 0 01.019-.02c.01-.004.023-.004.049-.004h.752c.025 0 .038 0 .048.004a.064.064 0 01.02.02c.005.01.005.022.005.047v.733c0 .025 0 .037-.005.047a.052.052 0 01-.02.019c-.01.005-.023.005-.048.005h-.752c-.026 0-.039 0-.049-.005a.05.05 0 01-.019-.019c-.005-.01-.005-.022-.005-.047v-.733zm-.636 2.453c-.004.01-.004.022-.004.047v.732c0 .026 0 .038.004.047a.043.043 0 00.02.02c.009.006.023.006.048.006h1.65c.025 0 .038 0 .047-.006a.039.039 0 00.02-.02c.005-.009.005-.021.005-.047v-.732c0-.025 0-.037-.005-.047a.046.046 0 00-.02-.019c-.009-.005-.022-.005-.047-.005h-1.65c-.025 0-.039 0-.048.005a.052.052 0 00-.02.019zM925.39 381.9c-.005.009-.005.021-.005.046v3.608c0 .024 0 .037.005.047a.041.041 0 00.02.019c.009.005.022.005.048.005h1.136c.026 0 .038 0 .048-.005a.052.052 0 00.02-.019c.005-.01.005-.023.005-.047v-1.428h.568c.025 0 .038 0 .048-.006a.043.043 0 00.02-.02c.005-.009.005-.021.005-.047v-.732c0-.025 0-.037-.005-.047a.052.052 0 00-.02-.019c-.01-.005-.023-.005-.048-.005h-.568v-1.304c0-.025 0-.037-.005-.046a.048.048 0 00-.02-.02c-.01-.005-.022-.005-.048-.005h-1.136c-.026 0-.039 0-.048.005a.039.039 0 00-.02.02zm-8.466 1.171c0-.025 0-.037.004-.047a.048.048 0 01.02-.02c.009-.004.022-.004.048-.004h1.136c.025 0 .038 0 .048.004a.064.064 0 01.02.02c.005.01.005.022.005.047v2.483c0 .024 0 .037-.005.047a.052.052 0 01-.02.019c-.01.005-.023.005-.048.005h-1.136c-.026 0-.039 0-.048-.005a.041.041 0 01-.02-.019c-.004-.01-.004-.023-.004-.047v-2.483zm29.253-1.196a.023.023 0 00-.023.023v.831c0 .011.009.021.021.021h.749c.283 0 .512.224.512.5s-.229.5-.512.5h-.749a.02.02 0 00-.021.02v.832c0 .012.01.023.023.023h.878c.777 0 1.406-.615 1.406-1.375 0-.759-.629-1.375-1.406-1.375h-.878zm-38.485.023c0-.013.011-.023.023-.023h.879c.776 0 1.406.616 1.406 1.375 0 .76-.63 1.375-1.406 1.375h-.879a.024.024 0 01-.023-.023v-.832a.02.02 0 01.021-.02h.75a.505.505 0 00.511-.5c0-.276-.228-.5-.511-.5h-.75a.021.021 0 01-.021-.021v-.831zm37.057.002c-.006.009-.006.021-.006.046v3.608c0 .024 0 .037.006.047a.044.044 0 00.019.019c.01.005.023.005.049.005h1.008c.025 0 .038 0 .048-.005a.052.052 0 00.02-.019c.005-.01.005-.023.005-.047v-3.608c0-.025 0-.037-.005-.046a.048.048 0 00-.02-.02c-.01-.005-.023-.005-.048-.005h-1.008c-.026 0-.039 0-.049.005a.041.041 0 00-.019.02zm-38.467.046c0-.025 0-.037.005-.046a.043.043 0 01.02-.02c.009-.005.023-.005.048-.005h1.008c.025 0 .038 0 .048.005a.043.043 0 01.02.02c.005.009.005.021.005.046v3.608c0 .024 0 .037-.005.047a.046.046 0 01-.02.019c-.01.005-.023.005-.048.005h-1.008c-.025 0-.039 0-.048-.005a.046.046 0 01-.02-.019c-.005-.01-.005-.023-.005-.047v-3.608zM897.965 384a.044.044 0 00-.042.03l-.269.749a.045.045 0 00.044.059h1.154a.044.044 0 00.041-.062l-.327-.749a.046.046 0 00-.041-.027h-.56zm-.185-2.063c-.013-.029.009-.062.042-.062h1.029c.018 0 .034.01.041.026l1.653 3.661a.045.045 0 01-.042.063h-1.029a.049.049 0 01-.042-.026l-1.652-3.662zm.358 1.129a.04.04 0 01.001.034l-1.001 2.507a.043.043 0 01-.042.029h-1.064c-.033 0-.055-.032-.043-.061l1.534-3.672c.016-.037.068-.038.084-.002l.531 1.165zm-9.219-1.191h1.649c.026 0 .038 0 .048.005a.039.039 0 01.02.02c.005.009.005.021.005.046v3.608c0 .024 0 .037-.005.047a.041.041 0 01-.02.019c-.01.005-.022.005-.048.005h-1.008c-.025 0-.038 0-.048-.005a.052.052 0 01-.02-.019c-.005-.01-.005-.023-.005-.047v-2.804h-.568c-.025 0-.038 0-.048-.005a.046.046 0 01-.02-.019c-.005-.01-.005-.022-.005-.047v-.733c0-.025 0-.037.005-.046a.039.039 0 01.02-.02c.01-.005.023-.005.048-.005zm-2.119.025c-.005.009-.005.021-.005.046v3.608c0 .024 0 .037.005.047a.041.041 0 00.02.019c.009.005.022.005.048.005h1.008c.026 0 .038 0 .048-.005a.041.041 0 00.02-.019c.004-.01.004-.023.004-.047v-2.804h.569c.025 0 .038 0 .048-.005a.06.06 0 00.02-.019c.005-.01.005-.022.005-.047v-.733c0-.025 0-.037-.005-.046a.048.048 0 00-.02-.02c-.01-.005-.023-.005-.048-.005h-1.649c-.026 0-.039 0-.048.005a.039.039 0 00-.02.02zm-.005-5.044c0-.125 0-.187.025-.235a.232.232 0 01.099-.097c.049-.024.113-.024.24-.024h60.811c.127 0 .19 0 .239.024a.226.226 0 01.099.097c.025.048.025.11.025.235v.164c0 .124 0 .186-.025.234a.221.221 0 01-.099.097c-.049.024-.112.024-.239.024h-60.811c-.127 0-.191 0-.24-.024a.226.226 0 01-.099-.097c-.025-.048-.025-.11-.025-.234v-.164zm29.982-15.646a.229.229 0 01.004.183l-4.676 11.723a.24.24 0 01-.225.151h-4.929a.238.238 0 01-.224-.326l7.242-17.334a.138.138 0 01.252-.003l2.556 5.606zm-1.237-5.704a.134.134 0 01.124-.188h5.088c.095 0 .182.055.221.14l7.966 17.476a.236.236 0 01-.221.333h-4.924a.243.243 0 01-.222-.14l-8.032-17.621zm27.429-.188a.238.238 0 00-.242.236v6.412h-2.591a.135.135 0 00-.136.133v4.387c0 .073.061.134.136.134h2.591v6.41a.24.24 0 00.242.237h4.971a.239.239 0 00.241-.237v-17.476a.238.238 0 00-.241-.236h-4.971zm-12.515.236c0-.131.109-.236.242-.236h4.971c.134 0 .242.105.242.236v6.412h2.591c.076 0 .137.06.137.133v4.387a.136.136 0 01-.137.134h-2.591v6.41a.24.24 0 01-.242.237h-4.971a.24.24 0 01-.242-.237v-17.476zm-31.363 17.476v-13.059H896.5a.134.134 0 01-.137-.133v-4.387c0-.073.061-.133.137-.133h7.804c.133 0 .242.105.242.236v17.476a.24.24 0 01-.242.237h-4.971a.24.24 0 01-.242-.237zm-12.272-17.476c0-.131.108-.236.241-.236h7.804c.075 0 .136.06.136.133v4.387a.134.134 0 01-.136.133h-2.591v13.059a.24.24 0 01-.243.237h-4.97a.239.239 0 01-.241-.237v-17.476zm29.284 10.4a.138.138 0 00-.128.087l-1.354 3.584a.236.236 0 00.226.318h5.755a.237.237 0 00.221-.334l-1.65-3.576a.138.138 0 00-.125-.079h-2.945zm-36.024-15.567c-.079.152-.079.351-.079.749v37.728c0 .398 0 .597.079.749.07.133.181.242.317.309.155.078.359.078.765.078h72.678c.406 0 .61 0 .765-.078a.717.717 0 00.317-.309c.079-.152.079-.351.079-.749v-37.728c0-.398 0-.597-.079-.749a.72.72 0 00-.317-.31c-.155-.077-.359-.077-.765-.077h-72.678c-.406 0-.61 0-.765.077a.72.72 0 00-.317.31z" fill="#FF2D23"/></g><rect x="892" y="245" width="149" height="35" rx="17.5" fill="#8F95AC"/><path d="M909.534 261.064h3.01c1.064 0 1.885.261 2.464.784.588.523.882 1.251.882 2.184 0 .933-.294 1.661-.882 2.184-.579.523-1.4.784-2.464.784h-4.27v-9.996h6.846v1.148h-5.586v2.912zm0 4.816h2.8c.812 0 1.395-.159 1.75-.476.364-.317.546-.779.546-1.386 0-1.232-.765-1.848-2.296-1.848h-2.8v3.71zm8.715-5.068c.626-.7 1.475-1.05 2.548-1.05 1.074 0 1.918.35 2.534 1.05.626.7.938 1.587.938 2.66 0 1.073-.312 1.96-.938 2.66-.616.7-1.46 1.05-2.534 1.05-1.073 0-1.922-.35-2.548-1.05-.616-.7-.924-1.587-.924-2.66 0-1.073.308-1.96.924-2.66zm.854 4.564c.392.513.957.77 1.694.77.738 0 1.302-.257 1.694-.77.392-.523.588-1.157.588-1.904 0-.747-.196-1.377-.588-1.89-.392-.523-.956-.784-1.694-.784-.737 0-1.302.261-1.694.784-.392.513-.588 1.143-.588 1.89 0 .747.196 1.381.588 1.904zm6.226 1.624v-1.12h.238c.494 0 .849-.229 1.064-.686.214-.467.322-1.307.322-2.52v-2.73h5.404V267h-1.204v-6.02h-3.094v1.722c0 1.596-.196 2.711-.588 3.346-.383.635-1.018.952-1.904.952h-.238zm10.505-7.056v2.352h2.086c.849 0 1.503.205 1.96.616.467.411.7.985.7 1.722 0 .747-.233 1.33-.7 1.75-.457.411-1.111.616-1.96.616h-3.276v-7.056h1.19zm0 6.02h1.918c.588 0 1.008-.112 1.26-.336.252-.224.378-.555.378-.994 0-.439-.126-.77-.378-.994-.252-.224-.672-.336-1.26-.336h-1.918v2.66zm14.307-6.02h1.162V267h-9.03v-7.056h1.162v6.02h2.772v-6.02h1.162v6.02h2.772v-6.02zm3.942.868c.626-.7 1.475-1.05 2.548-1.05 1.074 0 1.918.35 2.534 1.05.626.7.938 1.587.938 2.66 0 1.073-.312 1.96-.938 2.66-.616.7-1.46 1.05-2.534 1.05-1.073 0-1.922-.35-2.548-1.05-.616-.7-.924-1.587-.924-2.66 0-1.073.308-1.96.924-2.66zm.854 4.564c.392.513.957.77 1.694.77.738 0 1.302-.257 1.694-.77.392-.523.588-1.157.588-1.904 0-.747-.196-1.377-.588-1.89-.392-.523-.956-.784-1.694-.784-.737 0-1.302.261-1.694.784-.392.513-.588 1.143-.588 1.89 0 .747.196 1.381.588 1.904zm8.704 1.624h-1.68v-7.056h1.162v5.46h.308l3.094-5.46h1.736V267h-1.162v-5.46h-.308l-3.15 5.46zm2.66-10.136h.966c-.019.653-.22 1.157-.602 1.512-.383.355-.91.532-1.582.532-.663 0-1.186-.177-1.568-.532-.383-.355-.584-.859-.602-1.512h.966c.018.793.42 1.19 1.204 1.19.765 0 1.171-.397 1.218-1.19zM980.687 267h-1.19v-6.02h-3.85V267h-1.19v-7.056h6.23V267zm5.689-6.202c-.737 0-1.293.257-1.666.77-.364.513-.546 1.148-.546 1.904s.182 1.391.546 1.904c.373.513.929.77 1.666.77.691 0 1.223-.243 1.596-.728.383-.495.574-1.143.574-1.946 0-.803-.191-1.447-.574-1.932-.373-.495-.905-.742-1.596-.742zm-3.388-.854h1.148v.756h.308c.504-.625 1.237-.938 2.198-.938.952 0 1.703.35 2.254 1.05.56.7.84 1.587.84 2.66 0 1.092-.28 1.983-.84 2.674-.551.691-1.302 1.036-2.254 1.036-.971 0-1.689-.313-2.156-.938h-.308v3.556h-1.19v-9.856zm9.63 7.056h-1.456v-1.624h1.456V267zm6.246-9.996h8.006V267h-1.26v-8.848h-5.49V267h-1.256v-9.996zM1010.68 267h-1.46v-1.624h1.46V267zm8.7-2.842h1.33c-.22.924-.66 1.661-1.34 2.212-.69.541-1.56.812-2.62.812-1.46 0-2.59-.481-3.4-1.442-.82-.961-1.22-2.207-1.22-3.738 0-1.531.41-2.777 1.23-3.738.82-.961 1.95-1.442 3.4-1.442 1.01 0 1.85.252 2.52.756.67.495 1.11 1.176 1.32 2.044h-1.33c-.39-1.101-1.23-1.652-2.51-1.652-1.1 0-1.94.387-2.5 1.162-.57.775-.86 1.731-.86 2.87 0 1.148.28 2.109.84 2.884.57.765 1.41 1.148 2.51 1.148.69 0 1.26-.163 1.71-.49.44-.336.75-.798.92-1.386zm4.56 2.842h-1.46v-1.624h1.46V267z" fill="#fff"/><rect x="1041" y="530" width="137" height="35" rx="17.5" fill="#8F95AC"/><path d="M1059.05 554.8h-1.2l1.45-3.458-3.01-6.398h1.28l2.15 4.648h.35l1.96-4.648h1.25l-4.23 9.856zm4.45-2.8v-1.12h.24c.49 0 .85-.229 1.06-.686.22-.467.32-1.307.32-2.52v-2.73h5.41V552h-1.21v-6.02h-3.09v1.722c0 1.596-.2 2.711-.59 3.346-.38.635-1.01.952-1.9.952h-.24zm10.7 0h-1.45v-1.624h1.45V552zm6.25-9.996h1.23v8.47h.31l4.65-8.47h1.97V552h-1.23v-8.47h-.31l-4.65 8.47h-1.97v-9.996zm15.55 6.104v.308c.34.084.62.271.82.56.22.289.32.653.32 1.092 0 1.288-.83 1.932-2.49 1.932h-3.62v-7.056h3.5c.71 0 1.25.159 1.63.476.4.308.59.742.59 1.302 0 .327-.07.611-.22.854-.14.243-.32.42-.53.532zm-3.8 2.884h2.38c.92 0 1.37-.35 1.37-1.05 0-.709-.45-1.064-1.37-1.064h-2.38v2.114zm0-5.04v1.918h2.21c.41 0 .7-.089.87-.266.19-.177.28-.406.28-.686 0-.644-.38-.966-1.15-.966h-2.21zm11.29 6.048v-.742h-.31c-.48.616-1.21.924-2.19.924-.78 0-1.4-.224-1.85-.672a2.183 2.183 0 01-.69-1.624c0-.644.23-1.195.67-1.652.45-.457 1.13-.686 2.03-.686h2.3v-.28c0-.448-.14-.803-.42-1.064-.28-.271-.71-.406-1.3-.406-1.03 0-1.58.341-1.64 1.022h-1.19c.05-.644.32-1.148.83-1.512.51-.364 1.17-.546 1.97-.546.9 0 1.61.21 2.13.63.52.42.78 1.022.78 1.806V552h-1.12zm-2.21-.854c.59 0 1.1-.191 1.53-.574.42-.392.64-.868.64-1.428v-.644h-2.11c-1.13 0-1.7.448-1.7 1.344 0 .401.14.719.42.952.29.233.7.35 1.22.35zm11.8.854h-1.19v-3.108h-3.91V552h-1.19v-7.056h1.19v2.912h3.91v-2.912h1.19V552zm2.79-6.188c.62-.7 1.47-1.05 2.54-1.05 1.08 0 1.92.35 2.54 1.05.62.7.94 1.587.94 2.66 0 1.073-.32 1.96-.94 2.66-.62.7-1.46 1.05-2.54 1.05-1.07 0-1.92-.35-2.54-1.05-.62-.7-.93-1.587-.93-2.66 0-1.073.31-1.96.93-2.66zm.85 4.564c.39.513.96.77 1.69.77.74 0 1.31-.257 1.7-.77.39-.523.59-1.157.59-1.904 0-.747-.2-1.377-.59-1.89-.39-.523-.96-.784-1.7-.784-.73 0-1.3.261-1.69.784-.39.513-.59 1.143-.59 1.89 0 .747.2 1.381.59 1.904zm11.99-2.268v.308c.35.084.62.271.83.56.21.289.32.653.32 1.092 0 1.288-.83 1.932-2.49 1.932h-3.63v-7.056h3.5c.71 0 1.26.159 1.64.476.39.308.59.742.59 1.302 0 .327-.07.611-.22.854-.14.243-.32.42-.54.532zm-3.79 2.884h2.38c.91 0 1.37-.35 1.37-1.05 0-.709-.46-1.064-1.37-1.064h-2.38v2.114zm0-5.04v1.918h2.21c.4 0 .69-.089.87-.266.19-.177.28-.406.28-.686 0-.644-.38-.966-1.15-.966h-2.21zm11.57 3.92h1.19c-.14.709-.47 1.274-1 1.694-.51.411-1.17.616-1.97.616-1.06 0-1.9-.345-2.52-1.036-.61-.7-.91-1.591-.91-2.674 0-1.092.3-1.983.91-2.674.61-.691 1.45-1.036 2.52-1.036.81 0 1.47.205 1.97.616.52.401.84.938.96 1.61h-1.19c-.26-.793-.83-1.19-1.74-1.19-.76 0-1.32.252-1.69.756-.37.495-.55 1.125-.55 1.89 0 .775.19 1.419.56 1.932.37.513.93.77 1.68.77.99 0 1.58-.425 1.78-1.274zm7.83 2.128l-1.56-3.108h-2.12V552h-1.19v-7.056h1.19v2.912h2.14l1.47-2.912h1.25l-1.72 3.402 1.82 3.654h-1.28zm7.46 0v-.742h-.31c-.48.616-1.22.924-2.2.924-.77 0-1.39-.224-1.84-.672a2.183 2.183 0 01-.69-1.624c0-.644.22-1.195.67-1.652.45-.457 1.13-.686 2.03-.686h2.3v-.28c0-.448-.14-.803-.42-1.064-.28-.271-.72-.406-1.3-.406-1.03 0-1.58.341-1.64 1.022h-1.19c.05-.644.32-1.148.82-1.512.52-.364 1.18-.546 1.98-.546.9 0 1.61.21 2.13.63.52.42.78 1.022.78 1.806V552h-1.12zm-2.21-.854c.59 0 1.1-.191 1.52-.574.43-.392.65-.868.65-1.428v-.644h-2.12c-1.12 0-1.69.448-1.69 1.344 0 .401.14.719.42.952.29.233.7.35 1.22.35zm7.79-6.202h3.52V552h-1.21v-2.786h-2.14c-.19 0-.33-.005-.43-.014l-1.07 2.8h-1.24l1.19-3.066c-.73-.345-1.1-.961-1.1-1.848 0-.681.21-1.209.63-1.582.43-.373 1.05-.56 1.85-.56zm2.31 1.008h-2.18c-.52 0-.88.098-1.09.294-.22.196-.33.481-.33.854 0 .364.11.639.33.826.21.187.57.28 1.09.28h2.18v-2.254z" fill="#fff"/></svg>