<svg width="13" height="19" fill="none" xmlns="http://www.w3.org/2000/svg"><path fill-rule="evenodd" clip-rule="evenodd" d="M2.5 14.833c-.92 0-1.667.748-1.667 1.667 0 .92.748 1.667 1.667 1.667.954 0 1.667-.88 1.667-1.667v-1.667H2.5zM2.5 19A2.503 2.503 0 010 16.5C0 15.121 1.121 14 2.5 14H5v2.5C5 17.832 3.832 19 2.5 19zM10.5 11.833c-.92 0-1.667.748-1.667 1.667 0 .92.748 1.667 1.667 1.667.954 0 1.667-.88 1.667-1.667v-1.667H10.5zm0 4.167A2.503 2.503 0 018 13.5c0-1.379 1.121-2.5 2.5-2.5H13v2.5c0 1.332-1.168 2.5-2.5 2.5z" fill="#8F95AC"/><path fill-rule="evenodd" clip-rule="evenodd" d="M4.818 14H4V3.68L13 0v11.49h-.818V1.236L4.818 4.246V14z" fill="#8F95AC"/><path fill-rule="evenodd" clip-rule="evenodd" d="M12.714 3l.286.754L5.286 7 5 6.246 12.714 3z" fill="#8F95AC"/></svg>