<svg width="10" height="17" xmlns="http://www.w3.org/2000/svg"><path d="M2.583 10.036l1.152 1.79-.187.85c-.116.478-.337.698-.337.698l-.313.429-.002-.001-1.477 2.007a.784.784 0 11-1.269-.923l1.545-2.098-.008-.007c.33-.427.401-.7.416-.78l.003-.023.477-1.942zm.43-5.72s1.143-.995 2.384-.62c.92.277 1.19 1.565 1.28 1.841.093.277.16 1.321 1 1.727l-.007.008 1.771.863a.66.66 0 01-.579 1.186L6.915 8.37a.593.593 0 01-.124-.079c-.175-.085-.617-.331-.823-.744-.1-.204-.204-.412-.29-.59L5.21 9.24l3.396 5.433a.926.926 0 11-1.57.983l-2.952-4.72L2.78 8.864 3.4 5.812l-.007-.006-.935.752s-.37.276-.446.968L2 7.517l-.205 1.804a.66.66 0 01-1.313-.136L.77 6.653A.614.614 0 01.78 6.57a.642.642 0 01.042-.159c.063-.183.204-.437.515-.682zM5.713 0a1.524 1.524 0 110 3.049 1.524 1.524 0 010-3.049z" fill="#8F95AC" fill-rule="evenodd"/></svg>