<svg width="23" height="18" fill="none" xmlns="http://www.w3.org/2000/svg"><path clip-rule="evenodd" d="M22.37 14.838a1.872 1.872 0 01-1.864 1.866H2.366A1.873 1.873 0 01.5 14.838V3.85c0-1.027.84-1.867 1.867-1.867h18.14c1.024 0 1.864.84 1.864 1.867v10.987h0z" stroke="#8F95AC"/><path clip-rule="evenodd" d="M15.116 4.058a5.288 5.288 0 11-.001 10.575 5.288 5.288 0 01.001-10.575z" stroke="#8F95AC"/><path clip-rule="evenodd" d="M15.116 5.805a3.54 3.54 0 110 7.08 3.54 3.54 0 010-7.08zM4.491 4.576a1.295 1.295 0 110 2.591 1.295 1.295 0 010-2.59z" stroke="#8F95AC"/><path d="M3.196 11.543h4.11M3.196 13.12h4.11M10.675 1.985l.671-.827C11.694.724 12.205.5 12.569.5h4.902c.364 0 .834.285 1.18.658l.65.746M3.25 1.785v-.547a.33.33 0 01.332-.33h2.01a.33.33 0 01.33.33v.547" stroke="#8F95AC"/></svg>