<svg width="257" height="257" fill="none" xmlns="http://www.w3.org/2000/svg"><path clip-rule="evenodd" d="M256 128.5c0 70.418-57.089 127.5-127.507 127.5C58.082 256 1 198.918 1 128.5 1 58.089 58.082 1 128.493 1 198.911 1 256 58.089 256 128.5z" stroke="#4E526B" stroke-width=".7"/><path clip-rule="evenodd" d="M40.745 115.439c19.874 10.978 31.525 5.485 30.15 17.149-1.369 11.663 0 17.149 9.59 26.75 9.599 9.602 12.342 30.182 11.651 41.154-.684 10.978 7.54 31.558 19.874 28.127 12.327-3.431-2.059-16.464 6.848-23.319 8.907-6.863 12.334-12.349 11.65-20.581-.684-8.232 4.803-4.116 8.908-8.232 4.111-4.116.684-13.033 5.479-17.834 4.796-4.8 3.428-10.286 0-15.779-3.42-5.486-6.163-12.348-12.327-12.348-6.171 0-8.907-3.431-15.078-7.54-6.171-4.123-6.848-8.232-13.026-6.863-6.164 1.377-7.532-.684-13.012 1.377-5.48 2.055-8.223 5.486-10.966-2.061-2.744-7.548-2.053-8.917-8.216-9.602-6.171-.685-14.394-2.747-13.71-7.547.69-4.801-1.368-8.917 6.163-8.917 7.547 0 15.079 7.54 20.558-2.062 5.487-9.602 6.171-13.718 13.019-13.033 6.855.692 11.651-3.424 16.453-5.486 4.796-2.061 8.216 0 13.703-.684 5.48-.685 4.112-6.17 4.112-15.78 0-9.601 6.164-8.917 4.104-18.518-2.052-9.61-2.052-17.15-13.011-13.033-10.967 4.116-23.302 6.855-29.465 6.855-6.171 0-17.822-3.431-20.558-10.286-.45-1.128-1.311-2.247-2.338-3.346C47.138 26.12 27.386 45.623 15 69.634c1.425 6.984 8.302 36.167 25.745 45.805zM249.762 89.137c-7.222 3.299-18.978 7.924-24.41 5.458-7.536-3.427-17.139-2.06-22.628-5.487-5.476-3.42-7.536-12.335-11.65-9.591-4.12 2.743-4.798 12.335-8.227 11.65-3.429-.69-6.858-11.65-10.28-4.111-3.436 7.539-8.227 15.071-8.227 15.071s-7.543 4.796-6.174 10.967c1.376 6.164 4.114 11.651 7.543 13.703 3.422 2.052 5.482 1.375 11.656 0 6.167-1.368 8.227-3.427 13.025 2.736 4.798 6.171 2.745 10.967 8.22 13.027 5.489 2.052 6.174 1.368 6.174 9.591 0 8.223 4.798 11.651 2.737 15.071-2.053 3.428-9.595 4.112-5.475 9.599 4.114 5.48 6.167 5.48 6.851 10.276.685 4.795-2.06 12.335 2.061 14.387 4.113 2.059 7.535 2.059 11.649 3.427 2.474.827 8.648-4.289 13.788-8.8C248.742 176.479 256 153.32 256 128.422c0-13.718-2.231-26.908-6.238-39.285zM194.545 36.145c0 8.978 1.376 8.289-1.377 13.123-2.759 4.834-6.896 2.765-11.025 6.213-4.143 3.455-3.455 6.22-2.079 12.434 1.384 6.22 7.585-1.38 11.721-1.38s5.52 0 11.032 4.145c5.513 4.145 6.208.69 11.721.69 5.512 0 6.2 2.076 12.408 6.22 4.359 2.91 13.814 2.787 19.054 1.703-9.412-22.828-25.197-42.308-45.133-56.293-.272.244-.58.488-.803.711-3.448 3.455-5.519 3.455-5.519 12.434z" stroke="#4E526B" stroke-width=".7"/></svg>