<svg width="98" height="93" fill="none" xmlns="http://www.w3.org/2000/svg"><path clip-rule="evenodd" d="M29.14 22.41c-5.054-4.02-10.947-5.012-13.174-2.262-2.226 2.75.012 8.256 4.995 12.362l-.003.003 50 40.49L79.14 62.9l-50-40.49z" stroke="#C4D0D6" stroke-width=".87"/><path d="M62.69 57.818l11.656 9.44M26.427 36.589l8.181-10.103M29.427 39.589l8.181-10.103M38.139 46.457s6.6 6.055 7.601 18.66c.866 10.898 5.566 15.164 9.484 18.337l13.862-11.653M52.188 81.588l13.66-12.1M46.811 36.445s7.295 5.198 19.832 3.556c10.84-1.42 15.99 2.291 19.91 5.464l-8.517 15.981M83.516 42.6L74.52 58.475M46.002 62.004l5.031-4.933M63.408 40.564l-3.78 5.947M72.021 71.41l5.903 7.01 8.182-10.102-8.304-4.047" stroke="#C4D0D6" stroke-width=".87"/></svg>