<svg width="25" height="19" fill="none" xmlns="http://www.w3.org/2000/svg"><path clip-rule="evenodd" d="M1 3.84v10.806c0 1.83 1.5 3.394 3.33 3.394h12.528c1.829 0 3.162-1.564 3.162-3.394V3.84H1z" stroke="#8F95AC"/><path d="M20.163 13.717c.248.038.434.059.65.059 1.905 0 3.45-1.08 3.45-3.403 0-2.474-1.545-3.403-3.45-3.403-.222 0-.412.02-.67.06" stroke="#8F95AC" stroke-linecap="round"/><path d="M14.36 6.822l.217-.451a.5.5 0 00-.433 0l.216.45zm-2.505 1.203l-.217-.451a.5.5 0 00-.284.45h.5zm0 7.149h-.5a.5.5 0 00.5.5v-.5zm5.011 0v.5a.5.5 0 00.5-.5h-.5zm0-7.15h.5a.5.5 0 00-.283-.45l-.216.45zm-2.527 2.48a.444.444 0 01-.444-.444h-1c0 .797.647 1.444 1.444 1.444v-1zm-.444-.444c0-.246.2-.445.444-.445v-1c-.797 0-1.444.647-1.444 1.445h1zm.444-.445c.245 0 .444.199.444.445h1c0-.798-.646-1.445-1.444-1.445v1zm.444.445c0 .245-.199.444-.444.444v1c.798 0 1.444-.647 1.444-1.444h-1zm-.639-3.689l-2.506 1.203.433.902 2.506-1.203-.433-.902zm-2.79 1.654v7.149h1v-7.15h-1zm.5 7.649h5.012v-1h-5.011v1zm5.512-.5v-7.15h-1v7.15h1zm-.283-7.6l-2.506-1.203-.433.902 2.506 1.203.433-.902z" fill="#8F95AC"/><path d="M14.36 9.087V2.593c0-.88-.73-1.593-1.61-1.593-.88 0-1.611.713-1.611 1.593v1.124" stroke="#8F95AC" stroke-linecap="round" stroke-linejoin="round"/></svg>