<svg width="32" height="24" fill="none" xmlns="http://www.w3.org/2000/svg"><path fill-rule="evenodd" clip-rule="evenodd" d="M12.004 18V6l10.003 6-10.003 6zM31.68 5.179s-.312-2.353-1.271-3.389C29.19.432 27.828.424 27.203.347 22.724 0 16.007 0 16.007 0h-.015S9.275 0 4.797.347C4.172.424 2.81.432 1.592 1.79.632 2.826.32 5.179.32 5.179S0 7.94 0 10.701v2.588c0 2.763.32 5.523.32 5.523s.312 2.352 1.271 3.386c1.219 1.358 2.816 1.317 3.529 1.459C7.68 23.919 16 24 16 24s6.724-.012 11.203-.355c.625-.08 1.988-.088 3.206-1.446.958-1.034 1.27-3.387 1.27-3.387S32 16.052 32 13.29v-2.588c0-2.762-.32-5.523-.32-5.523z" fill="#FF2D23"/></svg>