<svg width="23" height="14" xmlns="http://www.w3.org/2000/svg"><path fill-rule="evenodd" clip-rule="evenodd" d="M12.27 14c.765 0 .765-1.089.765-1.556 0-.777.766-1.555 1.531-1.555.766 0 2.067 1.322 3.062 2.333.765.778.765.778 1.531.778h2.295s1.531-.078 1.531-1.556c0-.466-.534-1.322-2.295-3.11-1.531-1.556-2.297-.778 0-3.89 1.378-1.943 2.45-3.655 2.295-4.122C22.832.857 18.93.078 18.394.78c-1.531 2.332-1.838 2.877-2.297 3.888C15.332 6.223 15.254 7 14.567 7c-.69 0-.766-1.478-.766-2.333C13.8 2.1 14.183.31 13.035 0H10.74C9.514 0 8.442.779 8.442.779s-.917.777-.765.777c.23 0 1.53-.31 1.53.777V3.89S9.208 7 8.443 7 6.146 3.889 4.616 1.556C4.08.623 3.85.779 3.086.779H.787c-.765 0-.841.543-.765.777 1.531 3.888 2.603 6.3 5.512 9.41 2.678 2.8 4.438 2.956 5.97 3.034h.765z"/></svg>
